<?xml version="1.0" standalone="no"?>
<!DOCTYPE svg PUBLIC "-//W3C//DTD SVG 20010904//EN"
 "http://www.w3.org/TR/2001/REC-SVG-20010904/DTD/svg10.dtd">
<svg version="1.0" xmlns="http://www.w3.org/2000/svg"
 width="2378.000000pt" height="2560.000000pt" viewBox="0 0 2378.000000 2560.000000"
 preserveAspectRatio="xMidYMid meet">

<g transform="translate(0.000000,2560.000000) scale(0.100000,-0.100000)"
fill="#000000" stroke="none">
<path d="M0 12800 l0 -12800 11890 0 11890 0 0 12800 0 12800 -11890 0 -11890
0 0 -12800z m16267 11433 c57 -51 173 -205 173 -229 0 -8 -15 -31 -33 -51 -18
-21 -52 -69 -75 -106 -23 -37 -66 -100 -96 -140 -148 -195 -207 -275 -269
-364 -212 -306 -302 -438 -357 -518 -202 -295 -433 -606 -619 -833 -115 -140
-137 -175 -144 -226 -7 -52 -53 -149 -104 -218 -28 -39 -44 -51 -86 -63 -71
-21 -142 -68 -173 -113 -14 -20 -35 -51 -47 -69 -12 -18 -56 -71 -97 -119 -41
-49 -85 -101 -97 -117 -12 -16 -77 -89 -144 -163 -67 -73 -133 -151 -147 -171
-14 -21 -55 -78 -92 -128 -88 -119 -110 -159 -164 -292 -29 -74 -58 -129 -85
-161 -45 -53 -49 -67 -25 -100 25 -36 73 -29 125 16 24 21 64 52 89 70 25 17
79 61 120 97 89 78 208 159 305 208 68 34 173 62 325 87 41 7 120 21 175 32
63 12 173 23 295 27 172 7 200 11 238 30 36 18 63 22 178 25 75 2 140 8 145
13 5 5 11 61 13 124 3 117 13 156 72 307 14 35 31 100 38 145 24 147 73 242
209 406 53 63 92 123 118 180 22 47 50 96 62 109 45 49 283 198 374 235 50 20
141 59 202 87 84 37 144 56 242 75 71 14 146 25 167 24 34 0 27 -5 -83 -59
-74 -37 -149 -83 -194 -120 -41 -34 -93 -71 -115 -82 -74 -37 -106 -66 -106
-98 0 -33 23 -60 50 -60 11 0 43 6 72 14 35 9 120 14 248 15 107 1 236 4 285
7 75 5 103 3 160 -14 39 -12 89 -26 112 -32 35 -9 55 -25 114 -93 39 -45 91
-113 114 -152 41 -68 44 -70 81 -69 63 1 323 34 394 50 140 31 122 15 -125
-107 -207 -102 -221 -113 -192 -148 20 -24 130 -225 216 -396 63 -125 88 -163
147 -225 39 -41 88 -104 109 -140 21 -36 60 -94 87 -130 48 -64 49 -66 47
-135 -1 -46 4 -83 15 -107 9 -21 16 -45 16 -54 0 -9 11 -42 24 -73 38 -88 66
-201 66 -261 0 -45 -8 -71 -45 -145 -25 -49 -50 -109 -56 -133 -19 -86 -130
-242 -172 -242 -22 0 -21 16 3 55 25 40 85 214 95 271 8 50 -8 111 -41 150
-33 42 -52 25 -81 -76 -13 -47 -39 -119 -58 -160 -18 -41 -43 -100 -56 -130
-39 -95 -165 -276 -283 -407 -46 -52 -366 -273 -393 -273 -4 0 11 19 34 43 22
23 60 69 85 103 24 33 60 81 81 105 33 41 97 176 97 206 0 17 -50 73 -65 73
-8 0 -25 -14 -39 -32 -32 -41 -40 -33 -25 24 10 34 10 77 2 174 -8 106 -17
149 -48 239 -21 61 -43 117 -50 125 -7 8 -28 42 -46 75 -83 151 -264 330 -409
406 -42 21 -56 23 -200 22 -175 -1 -233 -15 -318 -76 -26 -19 -66 -44 -89 -56
-47 -23 -44 -15 -46 -146 -1 -82 31 -167 109 -288 92 -142 141 -282 173 -499
12 -75 21 -172 21 -215 1 -43 7 -96 15 -118 8 -22 15 -49 15 -61 0 -79 177
-450 254 -532 41 -44 29 -65 -45 -74 -30 -3 -58 -13 -65 -22 -24 -33 -77 -7
-128 63 -20 28 -45 53 -55 56 -50 15 -99 -43 -191 -225 -23 -46 -75 -132 -115
-190 -39 -58 -94 -145 -120 -193 -34 -60 -72 -110 -123 -160 -70 -69 -138
-154 -130 -162 2 -3 32 4 66 14 37 12 77 17 100 14 24 -3 52 1 77 12 45 19
207 37 370 40 61 1 146 7 190 13 98 13 330 15 445 3 86 -10 225 -57 241 -83
15 -23 10 -52 -16 -90 -14 -20 -25 -47 -25 -60 -1 -24 -15 -67 -70 -203 l-31
-80 5 -145 c4 -80 2 -170 -3 -202 -11 -66 -5 -98 19 -98 28 0 122 45 171 82
87 67 504 269 662 322 56 18 152 43 212 56 61 12 142 28 180 37 93 19 409 29
500 15 88 -14 99 -26 91 -108 -10 -119 -105 -320 -253 -534 -99 -143 -379
-381 -543 -462 -84 -41 -238 -146 -276 -189 -10 -12 -54 -48 -98 -80 -83 -62
-130 -75 -157 -43 -15 18 -54 11 -84 -16 -32 -29 -220 -151 -340 -220 -60 -35
-148 -88 -193 -119 -46 -31 -109 -72 -140 -92 -32 -19 -86 -56 -122 -82 -36
-25 -163 -112 -282 -192 l-217 -145 -17 -53 c-25 -72 -20 -235 7 -290 18 -35
19 -41 4 -82 -10 -32 -12 -52 -5 -70 12 -32 24 -29 125 24 214 114 335 201
468 334 43 44 86 77 122 92 29 13 59 34 65 45 16 30 133 103 248 156 154 72
293 143 349 181 28 19 57 33 65 31 24 -9 -92 -104 -236 -195 -76 -48 -171
-115 -210 -147 -118 -98 -339 -234 -541 -332 -85 -41 -403 -244 -457 -292 -14
-12 -18 -31 -18 -86 0 -39 -7 -102 -15 -141 -9 -38 -22 -128 -29 -200 -14
-122 -18 -137 -66 -240 -54 -115 -123 -290 -134 -342 -4 -17 -18 -46 -32 -64
-13 -18 -27 -51 -31 -72 -3 -22 -22 -62 -41 -91 -43 -64 -82 -144 -82 -172 0
-12 -13 -38 -30 -59 -16 -21 -30 -45 -30 -54 0 -9 -21 -48 -46 -86 -25 -39
-59 -96 -75 -129 -37 -76 -74 -124 -114 -147 -24 -14 -41 -40 -69 -102 -21
-45 -48 -104 -61 -132 -13 -27 -26 -61 -30 -75 -9 -32 -79 -180 -213 -449 -70
-140 -120 -227 -144 -252 -41 -42 -45 -60 -23 -99 22 -39 19 -263 -4 -368 -22
-94 -32 -111 -152 -249 -116 -132 -214 -217 -307 -266 -42 -22 -89 -46 -104
-54 l-28 -14 0 -112 c1 -238 28 -388 101 -563 34 -80 43 -114 47 -179 l4 -80
-38 -50 c-21 -28 -74 -97 -118 -155 -43 -58 -98 -127 -120 -155 -23 -27 -64
-79 -91 -115 -27 -36 -74 -92 -105 -125 -30 -33 -80 -89 -110 -125 -30 -35
-89 -100 -131 -144 -82 -86 -129 -150 -129 -173 0 -8 33 -54 73 -103 39 -48
85 -104 100 -124 15 -20 53 -52 85 -72 57 -37 95 -67 164 -129 20 -19 60 -46
90 -61 49 -25 152 -64 168 -64 4 0 44 34 88 76 77 72 134 112 287 202 39 22
97 64 130 92 33 28 69 56 80 62 18 10 19 10 5 -10 -8 -11 -69 -78 -135 -149
-66 -71 -164 -177 -218 -235 l-97 -107 32 -24 c18 -14 48 -32 67 -42 18 -9 61
-42 95 -73 35 -32 95 -84 135 -117 134 -111 171 -148 171 -168 0 -18 -1 -18
-25 -3 -13 9 -28 16 -34 16 -13 0 -22 -30 -16 -51 5 -16 17 -19 79 -19 41 0
92 7 115 15 23 8 105 21 184 30 78 8 149 17 157 19 8 2 96 23 195 46 305 72
384 92 400 104 14 10 11 21 -28 96 -25 47 -59 119 -75 160 -53 133 -133 408
-147 503 -3 27 -13 67 -21 90 -11 29 -17 102 -21 235 -8 259 7 390 84 782 21
102 37 208 38 235 l0 50 -160 108 c-88 59 -219 141 -291 182 -72 41 -158 94
-191 118 -129 95 -383 420 -383 490 0 8 6 20 14 26 7 6 16 25 19 41 4 20 23
42 59 69 29 22 97 82 151 134 92 88 97 95 97 134 0 29 7 50 23 70 13 15 43 57
67 93 43 66 334 360 356 360 15 0 62 58 117 144 48 73 96 135 153 196 23 25
54 68 69 95 14 28 50 86 80 130 84 122 120 178 155 242 18 32 61 105 95 163
34 58 108 182 164 276 55 94 122 211 147 260 84 159 141 200 404 288 227 75
394 120 602 160 98 19 182 37 188 41 19 11 38 59 95 235 92 284 99 303 117
314 28 17 43 -5 30 -44 -9 -24 -8 -48 5 -103 27 -123 23 -398 -9 -587 -40
-239 -40 -239 -14 -296 13 -27 46 -71 73 -98 60 -61 249 -203 415 -313 137
-90 358 -291 410 -372 49 -78 36 -167 -39 -260 -143 -177 -248 -286 -310 -322
-29 -17 -99 -78 -155 -136 -57 -58 -119 -115 -138 -128 -19 -12 -84 -63 -143
-114 -60 -50 -112 -91 -116 -91 -11 0 -125 -89 -133 -105 -4 -7 -1 -47 7 -90
8 -42 15 -116 15 -163 0 -80 -4 -96 -45 -196 -24 -60 -65 -141 -89 -181 -44
-69 -194 -225 -217 -225 -20 0 -2 -59 50 -165 38 -78 66 -118 128 -185 44 -47
85 -95 91 -107 22 -40 14 -142 -18 -233 -35 -103 -101 -281 -124 -334 -9 -21
-16 -46 -16 -56 0 -28 65 -78 125 -95 155 -45 341 -191 534 -418 45 -53 99
-110 118 -126 40 -33 38 -43 -15 -70 -20 -10 -77 -54 -125 -96 -138 -121 -415
-338 -467 -365 -13 -7 -47 -34 -75 -60 -27 -26 -77 -62 -110 -80 -33 -18 -86
-51 -118 -73 -33 -21 -138 -79 -235 -127 -98 -49 -208 -109 -247 -134 -38 -25
-73 -46 -78 -46 -19 0 -284 -154 -329 -192 -26 -21 -74 -50 -105 -64 -32 -14
-83 -41 -113 -61 -173 -110 -217 -136 -340 -199 -74 -38 -155 -78 -180 -89
-25 -11 -59 -30 -76 -42 -17 -13 -51 -27 -75 -32 -24 -5 -79 -25 -123 -46
l-79 -37 -56 17 c-31 9 -91 37 -135 62 -53 30 -98 48 -140 54 -41 7 -80 22
-121 48 -136 86 -332 196 -630 356 -110 59 -219 120 -242 136 -60 41 -92 51
-143 44 -42 -6 -55 -16 -176 -138 -72 -73 -187 -186 -256 -252 -68 -66 -159
-165 -201 -220 -42 -56 -96 -115 -121 -133 -81 -58 -234 -228 -318 -352 -21
-30 -84 -103 -141 -161 -57 -59 -141 -152 -185 -207 -45 -55 -118 -133 -163
-174 -45 -40 -97 -87 -116 -105 -18 -17 -62 -43 -97 -58 -51 -22 -71 -37 -97
-74 -60 -86 -200 -216 -298 -276 -9 -5 -32 -22 -51 -36 -19 -15 -57 -37 -83
-49 -27 -13 -93 -65 -151 -119 -56 -53 -137 -123 -180 -156 -43 -33 -113 -87
-155 -121 -42 -33 -116 -89 -166 -124 -49 -35 -103 -75 -120 -90 -97 -87 -352
-238 -440 -259 -27 -7 -68 -23 -90 -35 -22 -13 -76 -39 -120 -59 -44 -19 -123
-54 -175 -77 -106 -48 -330 -109 -400 -110 -25 0 -63 -5 -85 -10 -23 -5 -317
-10 -692 -10 -607 0 -657 1 -740 19 -111 24 -171 51 -303 134 -126 80 -155
105 -203 177 l-37 55 0 111 c0 60 5 137 11 170 13 74 63 229 101 312 15 35 39
90 53 123 25 62 76 152 131 229 17 25 53 88 79 140 26 52 64 114 84 136 20 23
59 78 86 123 83 135 136 214 165 246 15 17 42 53 61 80 35 53 160 221 274 370
38 50 83 108 99 130 17 22 53 65 81 96 27 31 79 92 114 135 36 43 66 73 69 66
2 -6 -26 -70 -62 -141 -36 -70 -81 -166 -99 -212 -19 -46 -44 -104 -55 -129
-80 -175 -148 -380 -177 -530 -13 -69 -31 -145 -40 -170 -9 -25 -19 -74 -22
-110 -3 -36 -10 -72 -14 -82 -5 -9 -11 -54 -15 -100 -3 -45 -11 -99 -16 -118
-6 -19 -11 -105 -11 -191 1 -149 3 -159 32 -235 17 -44 47 -99 66 -121 28 -34
42 -41 82 -46 26 -3 66 -15 87 -26 35 -18 57 -20 200 -20 179 1 288 20 376 64
27 14 73 30 102 36 71 15 287 114 366 168 67 45 193 110 252 130 47 16 98 60
105 92 7 30 -23 67 -60 74 -155 28 -206 51 -384 170 -127 84 -213 162 -231
210 -13 33 -12 117 0 171 12 54 117 239 186 330 30 39 92 106 138 150 75 72
84 85 95 132 18 84 14 112 -29 207 -22 50 -44 113 -50 140 -5 28 -13 187 -18
355 l-9 305 -31 60 -32 60 0 161 c0 195 -10 262 -44 288 -43 33 -148 74 -287
112 -188 51 -283 99 -364 181 -35 36 -81 86 -102 112 -20 25 -63 72 -95 104
-32 33 -58 67 -58 77 0 9 18 29 40 44 21 14 58 53 82 86 24 35 79 90 129 130
65 51 100 89 138 147 28 43 51 89 51 101 0 39 -36 78 -118 128 -42 26 -84 53
-92 59 -8 7 -49 27 -90 46 -79 35 -114 55 -275 154 -179 110 -265 142 -315
115 -10 -5 -39 -12 -65 -15 -47 -6 -123 -50 -198 -114 -18 -15 -107 -78 -199
-140 -91 -61 -199 -138 -240 -171 -40 -33 -111 -86 -158 -119 -47 -33 -122
-93 -167 -134 -45 -41 -115 -94 -155 -118 -40 -23 -125 -77 -188 -119 -237
-157 -533 -313 -824 -431 -93 -38 -177 -76 -186 -84 -37 -33 -331 -163 -675
-297 -55 -21 -131 -52 -170 -68 -121 -51 -284 -110 -305 -110 -30 0 -25 28 16
96 69 114 141 197 430 496 97 100 156 154 187 168 28 13 65 44 93 78 75 90
315 331 360 363 23 15 80 61 127 101 55 48 124 93 194 130 122 63 232 125 251
140 7 6 15 9 17 6 7 -7 -275 -292 -310 -314 -59 -37 -257 -187 -313 -238 -31
-28 -85 -75 -118 -104 -53 -45 -66 -63 -93 -130 -39 -96 -40 -135 -5 -167 36
-34 74 -39 141 -20 63 18 681 323 778 384 33 21 105 64 160 96 55 32 132 79
170 105 39 26 100 64 137 84 37 20 105 67 151 105 45 37 121 92 167 121 47 30
98 65 114 78 16 12 50 34 75 47 25 13 93 66 152 117 130 116 150 130 248 178
118 58 173 139 124 182 -27 24 -153 108 -193 128 -19 9 -60 23 -90 30 -30 7
-100 35 -155 63 -107 53 -192 79 -405 122 -74 15 -171 42 -215 60 -111 45
-162 61 -295 89 -118 26 -265 73 -329 105 -36 19 -134 122 -181 191 -81 119
-403 492 -484 562 -51 44 -77 59 -118 67 -29 7 -78 27 -109 46 -31 19 -85 41
-119 49 -35 8 -69 21 -76 28 -7 7 -29 59 -49 116 -74 213 -376 892 -418 940
-29 33 -37 62 -66 233 -21 121 -33 241 -41 394 -9 162 -16 228 -27 250 -10 19
-19 75 -24 150 -5 87 -16 149 -38 225 -37 127 -38 138 -6 237 47 151 67 171
310 306 208 116 241 128 540 192 222 47 321 58 562 62 l231 4 159 -40 c164
-42 590 -141 798 -186 66 -14 192 -47 280 -74 251 -77 322 -97 440 -126 61
-14 156 -38 212 -52 94 -23 105 -24 126 -10 13 8 30 30 37 47 16 38 1 77 -53
137 -55 61 -132 185 -157 254 -39 106 -105 231 -154 291 -26 31 -82 83 -124
116 -42 33 -85 75 -94 93 -9 19 -37 78 -61 131 -57 122 -98 185 -195 294 -174
196 -242 281 -271 339 l-30 61 -2 267 c-1 260 -1 267 21 302 21 34 22 45 17
132 -4 53 -12 102 -18 110 -9 11 -30 13 -93 8 -45 -3 -149 -7 -232 -9 -144 -3
-153 -4 -204 -32 -34 -18 -73 -53 -110 -99 -32 -38 -75 -86 -95 -105 -21 -19
-103 -107 -183 -195 -80 -88 -200 -216 -267 -285 -66 -69 -157 -171 -203 -226
-85 -105 -232 -255 -291 -299 -62 -45 -160 -29 -215 35 -22 27 -27 41 -23 69
7 58 263 653 325 755 38 63 168 216 183 216 19 0 8 -22 -27 -52 -50 -44 -166
-279 -201 -405 -37 -136 -40 -182 -14 -214 29 -37 98 -55 147 -39 45 15 159
128 239 235 28 39 77 99 108 135 286 332 341 400 358 435 25 53 24 82 -3 99
-27 16 -638 165 -808 196 -180 34 -341 76 -515 137 -153 53 -232 76 -550 158
-77 19 -159 45 -182 56 -53 26 -110 91 -124 141 -12 45 2 138 26 174 33 50
262 186 597 355 91 46 297 118 483 169 44 12 154 46 245 75 159 52 324 94 650
170 207 47 251 54 415 66 228 17 261 16 360 -13 50 -14 116 -30 148 -36 39 -8
88 -29 150 -66 143 -86 173 -96 304 -107 145 -11 170 -4 221 60 93 120 161
202 227 273 38 42 94 104 124 138 30 33 66 67 80 75 44 22 111 27 233 16 261
-25 546 -106 929 -265 187 -78 213 -86 280 -88 l74 -3 28 55 c16 30 36 59 45
64 9 5 82 76 161 158 139 144 197 195 207 185 14 -13 -18 -388 -42 -501 -35
-161 -41 -279 -17 -326 38 -72 182 -130 325 -130 168 0 191 34 279 419 17 74
51 185 75 247 24 62 51 147 60 189 19 93 10 129 -51 194 -53 59 -57 69 -39
127 20 66 18 214 -3 273 -15 45 -15 50 0 90 25 60 22 118 -9 175 -25 47 -26
53 -15 117 13 82 14 149 2 181 -5 14 -27 32 -49 42 -22 10 -54 36 -71 57 -30
37 -31 40 -31 146 0 59 7 140 16 178 8 39 19 92 24 118 10 50 48 113 97 159
45 43 102 58 225 58 l109 0 47 44 c26 24 70 58 98 75 46 28 62 32 148 36 53 2
124 9 158 14 35 5 123 8 196 6 134 -3 134 -3 170 -34 21 -17 51 -39 68 -48 30
-15 34 -15 75 8 33 19 54 43 97 116 31 51 89 130 129 175 41 46 109 135 153
198 43 63 127 181 186 262 60 81 125 171 146 201 l36 53 89 -2 c165 -2 344
-24 405 -50 67 -28 88 -29 127 -9 68 35 215 223 381 487 76 121 135 188 208
235 39 25 67 56 110 121 178 268 295 424 407 542 57 61 108 128 140 183 106
184 122 210 190 299 39 50 95 119 125 152 30 34 70 86 89 116 27 43 163 249
237 358 7 9 49 76 94 147 124 195 154 239 165 247 6 4 53 8 106 8 78 0 101 -3
116 -17z m-7497 -839 c245 -95 306 -124 490 -234 194 -115 217 -133 225 -169
3 -16 19 -49 35 -74 16 -26 45 -79 65 -119 111 -223 112 -224 205 -278 56 -32
76 -38 147 -43 60 -5 98 -14 145 -36 34 -16 75 -34 89 -39 17 -7 38 -33 63
-82 49 -93 137 -159 161 -120 3 6 28 10 54 10 56 0 76 18 166 150 32 47 82
114 111 150 28 36 74 97 101 137 28 41 110 129 189 205 216 206 209 201 472
346 36 19 68 30 72 26 5 -5 5 -97 0 -209 -7 -158 -15 -231 -39 -345 -34 -163
-84 -384 -107 -475 -9 -33 -29 -131 -45 -218 -25 -136 -28 -173 -23 -260 10
-150 11 -152 166 -254 73 -49 174 -113 223 -142 172 -103 355 -228 355 -243 0
-16 -35 -4 -221 78 -96 42 -217 91 -269 110 -52 19 -144 60 -203 89 -60 30
-117 55 -127 55 -20 0 -100 -84 -100 -105 0 -27 -172 -353 -212 -402 -23 -29
-44 -50 -46 -49 -2 2 31 71 72 152 79 156 136 326 136 403 0 60 -37 95 -116
110 -148 28 -173 33 -229 51 -33 10 -110 21 -172 25 -94 6 -116 4 -135 -9 -27
-20 -46 -20 -67 -3 -9 8 -65 31 -124 51 -60 20 -148 56 -196 80 -48 24 -126
56 -174 71 -69 21 -100 37 -145 74 -76 63 -123 117 -176 200 -61 94 -88 114
-146 106 -25 -3 -98 -8 -163 -11 -153 -7 -123 -23 -492 254 -221 166 -464 407
-618 613 -66 88 -138 205 -199 324 -42 83 -42 84 -23 105 19 21 24 21 330 18
l310 -3 185 -71z m-1240 -2513 c230 -26 419 -57 500 -81 36 -10 128 -38 205
-60 167 -49 347 -132 398 -183 20 -20 55 -65 78 -99 60 -91 108 -138 139 -138
37 1 116 62 123 97 4 15 16 39 27 53 l20 25 -20 -48 c-11 -27 -20 -61 -20 -75
0 -56 0 -56 242 -58 l223 -1 90 -39 c85 -36 97 -45 212 -161 68 -68 128 -123
134 -123 5 0 61 -22 122 -50 62 -27 156 -63 209 -79 203 -63 475 -207 517
-275 58 -93 19 -248 -71 -287 -30 -12 -126 -8 -358 16 -74 8 -187 19 -251 24
-81 7 -136 18 -184 35 -81 31 -126 32 -225 5 -60 -17 -115 -22 -272 -26 -108
-3 -212 -3 -230 1 -19 3 -84 38 -144 78 -250 163 -325 178 -461 91 -48 -30
-57 -43 -99 -131 -25 -53 -69 -133 -97 -177 -28 -44 -66 -105 -85 -135 -19
-30 -42 -66 -51 -80 -10 -14 -45 -66 -79 -115 -59 -90 -79 -114 -197 -252 -33
-38 -98 -117 -144 -176 -71 -91 -164 -184 -209 -211 -17 -10 -120 14 -135 32
-16 19 -16 190 0 291 14 90 116 307 121 260 2 -15 -4 -44 -12 -64 -38 -89 -6
-153 72 -146 13 1 210 188 344 328 93 96 241 280 268 333 11 21 33 48 50 60
33 24 39 50 14 71 -27 22 -125 49 -182 49 -32 0 -95 13 -160 34 -59 19 -224
71 -367 116 -457 144 -618 203 -751 275 -318 172 -591 419 -708 640 -30 56
-36 77 -36 129 0 81 23 107 113 129 34 9 100 26 147 38 47 12 128 28 180 35
52 7 133 19 180 25 47 7 105 16 130 20 78 14 502 1 690 -20z m11242 -3426 c95
-20 208 -57 208 -67 0 -5 -17 -5 -37 -1 -101 21 -393 -6 -465 -43 -40 -21
-391 -135 -397 -129 -18 19 337 192 464 226 120 33 133 33 227 14z m233 -1439
c-15 -25 -48 -66 -73 -92 -81 -79 -104 -79 -59 0 22 39 144 152 154 143 3 -3
-7 -26 -22 -51z m-695 -466 c0 -38 -188 -177 -204 -151 -3 5 17 27 46 48 29
21 72 55 96 76 44 37 62 45 62 27z m-1065 -1150 c-91 -91 -179 -159 -191 -147
-14 14 103 130 187 185 51 34 95 62 98 62 3 0 -39 -45 -94 -100z m-165 -639
c-159 -157 -209 -200 -293 -252 -107 -66 -237 -133 -243 -126 -8 8 241 239
301 280 33 22 78 55 100 72 22 18 67 48 100 67 33 19 96 60 140 91 44 31 81
57 83 57 2 0 -83 -85 -188 -189z m-9790 -5096 c-7 -8 -20 -15 -29 -15 -13 1
-13 3 3 15 26 19 42 19 26 0z m1115 -123 c-11 -10 -36 -38 -55 -62 -19 -25
-49 -57 -66 -72 -17 -15 -43 -45 -58 -67 -30 -42 -114 -102 -239 -171 -60 -33
-91 -43 -140 -47 -34 -2 -79 -11 -99 -19 -21 -7 -38 -10 -38 -6 1 24 153 135
220 162 19 7 75 40 124 72 49 32 92 58 96 58 5 0 45 29 91 65 45 36 89 65 97
65 7 0 25 9 39 20 31 25 56 26 28 2z m6875 -2110 c0 -9 -13 -33 -29 -53 -16
-19 -43 -59 -61 -88 -17 -30 -48 -74 -69 -100 -21 -25 -73 -91 -117 -146 -43
-54 -181 -204 -306 -331 -125 -128 -236 -249 -246 -271 -11 -21 -37 -54 -57
-73 -21 -19 -74 -80 -118 -135 -82 -100 -597 -622 -738 -746 -41 -37 -102 -80
-135 -97 -33 -17 -87 -53 -120 -79 -174 -144 -417 -222 -1069 -342 -107 -20
-600 -49 -612 -37 -3 3 14 14 38 25 320 140 407 192 945 568 41 29 91 60 111
68 19 8 53 31 74 50 72 65 98 39 42 -42 -64 -92 -123 -205 -123 -235 0 -36 66
-168 83 -168 12 0 62 37 312 231 44 35 154 126 245 203 91 78 190 160 220 183
30 23 71 56 92 75 20 18 54 44 77 57 41 25 122 101 271 256 47 49 128 123 180
166 52 42 118 101 145 130 61 66 191 181 265 236 30 22 77 64 104 94 27 30 97
104 156 164 60 61 125 133 146 160 20 28 47 57 58 65 48 33 121 109 157 162
45 66 79 88 79 50z m-1512 -891 c-74 -105 -628 -653 -667 -659 -12 -2 -21 -1
-21 3 0 4 34 40 76 82 41 42 96 103 121 137 68 91 181 203 243 243 30 20 80
59 111 87 63 57 142 125 147 126 2 0 -3 -8 -10 -19z m647 -883 c-46 -69 -156
-178 -207 -204 -27 -13 -48 -20 -48 -16 0 17 271 275 279 266 2 -2 -9 -23 -24
-46z"/>
<path d="M16049 24138 c-19 -24 -61 -86 -94 -138 -61 -100 -86 -138 -136 -207
-16 -23 -50 -81 -75 -129 -25 -49 -55 -101 -66 -117 -11 -15 -26 -48 -34 -73
-15 -52 -69 -134 -88 -134 -32 0 -63 -73 -35 -82 11 -4 0 -28 -64 -148 -85
-157 -371 -555 -417 -580 -11 -6 -23 -22 -26 -36 -4 -14 -26 -48 -50 -77 -24
-28 -44 -54 -44 -59 0 -22 -89 -45 -101 -26 -10 16 -104 -89 -179 -200 -46
-68 -72 -98 -90 -102 -14 -3 -34 -21 -45 -39 -11 -18 -36 -52 -56 -75 -20 -22
-116 -149 -213 -281 -202 -273 -221 -295 -292 -335 -47 -26 -56 -28 -105 -20
-30 5 -79 17 -109 28 -43 15 -93 21 -225 26 -93 3 -179 3 -191 0 -12 -3 -31
-24 -44 -47 -13 -23 -39 -62 -60 -87 -20 -25 -43 -56 -50 -70 -7 -14 -26 -42
-42 -62 -16 -20 -34 -52 -40 -70 -13 -38 -113 -190 -159 -243 -17 -19 -46 -42
-65 -51 -35 -17 -114 -107 -114 -130 0 -7 -13 -28 -29 -46 -15 -18 -40 -55
-54 -83 -36 -71 -74 -104 -129 -111 -67 -9 -113 2 -155 39 -35 30 -41 32 -142
38 -119 7 -366 -6 -424 -23 -53 -16 -66 -34 -34 -49 29 -13 50 -48 45 -75 -1
-11 -19 -27 -37 -36 -19 -10 -39 -25 -44 -34 -6 -10 -13 -65 -17 -123 -9 -134
-52 -234 -105 -243 -19 -3 -20 3 -21 83 -1 47 -9 117 -19 155 -11 44 -15 88
-12 121 4 35 2 53 -6 55 -7 2 -63 2 -124 0 l-113 -3 -41 -42 c-49 -50 -78
-108 -79 -158 0 -20 -7 -58 -15 -85 -8 -28 -15 -88 -15 -140 l0 -92 76 -75 76
-75 -3 -134 c-2 -107 1 -140 15 -171 15 -33 17 -76 16 -329 l-2 -290 26 -27
c13 -14 34 -47 45 -72 25 -60 39 -68 62 -38 17 23 19 23 75 11 42 -8 65 -20
85 -42 25 -27 32 -29 71 -24 24 3 63 1 87 -5 54 -12 74 -3 97 42 9 18 27 44
39 58 17 21 27 58 43 164 12 75 26 145 32 155 18 33 12 70 -12 80 -15 5 -17 9
-7 9 27 1 58 40 70 87 19 75 71 83 164 26 54 -33 193 -72 259 -72 22 0 58 -5
80 -9 21 -5 86 -11 144 -12 l106 -3 79 155 c43 85 89 168 102 185 13 17 28 49
34 72 9 30 20 46 41 57 37 19 65 57 125 170 46 86 102 166 135 192 28 23 79
27 114 8 38 -21 81 -15 89 12 3 10 19 42 36 70 35 59 37 51 -33 106 -42 34
-42 91 2 149 53 71 150 296 134 312 -14 15 -33 3 -61 -38 -35 -51 -76 -76 -46
-29 80 130 100 152 129 150 32 -2 29 -6 193 213 48 63 137 167 198 230 115
118 245 274 328 391 61 86 126 139 191 156 35 9 60 23 79 45 48 56 87 131 87
168 1 19 7 46 15 60 8 14 14 34 15 45 0 12 18 39 41 60 22 22 55 60 71 85 17
25 51 66 75 91 24 25 59 68 78 95 107 154 129 184 170 234 25 30 64 82 87 115
22 33 51 71 64 85 25 27 41 51 230 330 68 102 167 244 219 315 52 72 132 181
177 244 46 62 110 146 144 185 66 77 144 192 166 246 8 19 22 41 31 49 23 19
22 24 -18 78 -93 124 -76 113 -168 113 l-83 0 -35 -42z m-2604 -3153 c66 -14
131 -25 146 -25 24 0 49 -16 49 -32 0 -12 -41 -10 -122 7 -40 9 -117 22 -171
30 -104 14 -113 17 -102 34 10 17 71 13 200 -14z m-500 -359 c41 -17 44 -35
16 -89 -34 -67 -104 -167 -117 -167 -20 0 -66 67 -66 94 0 14 9 38 21 54 11
17 21 35 21 40 0 9 78 82 87 82 2 0 19 -7 38 -14z m-873 -258 c4 -7 8 -22 8
-33 0 -11 5 -27 10 -35 9 -12 17 -7 48 28 48 56 99 66 152 30 52 -35 52 -70
-1 -166 -67 -122 -92 -171 -127 -259 -18 -44 -43 -96 -55 -114 -27 -39 -74
-76 -84 -65 -5 4 -7 86 -6 182 3 185 -4 208 -36 132 -10 -24 -31 -74 -47 -112
-16 -38 -44 -84 -61 -103 -18 -18 -33 -37 -33 -42 0 -13 -50 -51 -66 -51 -18
0 -18 41 2 182 13 97 22 129 66 223 28 61 59 130 68 155 13 36 23 47 50 57 40
15 100 10 112 -9z m727 -212 c10 -11 9 -21 -4 -46 -21 -41 -58 -39 -63 3 -6
48 39 77 67 43z m517 -124 c-17 -16 -18 -16 -5 5 7 12 15 20 18 17 3 -2 -3
-12 -13 -22z m-47 -74 c-26 -53 -25 -52 -39 -43 -12 8 11 50 39 72 23 18 23
17 0 -29z m-629 1 c0 -6 -18 -32 -40 -58 -22 -27 -60 -92 -84 -145 -25 -54
-47 -100 -50 -103 -3 -3 -25 4 -49 16 -24 11 -48 21 -55 21 -24 0 -23 24 4 73
51 95 83 127 169 168 85 40 105 46 105 28z m-290 -24 c0 -51 -56 -132 -76
-112 -7 7 24 106 39 125 16 21 37 14 37 -13z m-205 -265 c-3 -5 -11 -10 -16
-10 -6 0 -7 5 -4 10 3 6 11 10 16 10 6 0 7 -4 4 -10z m-579 -615 c60 -13 143
-33 184 -44 73 -18 74 -19 30 -20 -25 0 -72 4 -105 9 -33 6 -100 18 -150 26
-92 15 -112 24 -101 43 10 15 18 14 142 -14z m-142 -54 c4 -5 -3 -7 -14 -4
-23 6 -26 13 -6 13 8 0 17 -4 20 -9z m441 -51 l0 -25 -125 1 c-122 1 -210 15
-210 34 0 7 230 18 320 15 9 0 15 -10 15 -25z"/>
<path d="M16451 21986 c-13 -14 -36 -30 -52 -36 -34 -15 -40 -35 -6 -23 12 4
36 8 52 9 17 1 36 2 43 3 17 1 16 71 -1 71 -8 0 -24 -11 -36 -24z"/>
<path d="M16237 21841 c-31 -27 -73 -62 -92 -77 -19 -14 -55 -56 -79 -93 -25
-36 -79 -100 -121 -141 -94 -92 -160 -213 -126 -234 10 -7 33 11 54 43 28 43
128 142 137 136 5 -3 -9 -44 -31 -90 -44 -96 -44 -95 -26 -95 7 0 23 21 36 48
29 59 142 232 191 292 27 33 37 55 37 82 1 27 13 54 43 97 23 33 40 65 38 71
-2 6 -29 -11 -61 -39z"/>
<path d="M16455 21865 c-44 -14 -87 -25 -95 -25 -16 0 -88 -78 -109 -119 -18
-34 4 -19 51 35 39 43 92 69 206 100 42 11 59 20 50 25 -16 11 -8 12 -103 -16z"/>
<path d="M16946 21713 c-3 -7 -15 -13 -26 -13 -11 0 -20 -5 -20 -11 0 -8 21
-10 70 -5 43 5 70 3 70 -2 0 -6 14 -15 31 -21 40 -14 39 -14 39 3 0 7 -10 16
-22 20 -19 5 -20 8 -8 15 13 9 13 10 0 15 -23 7 -50 4 -44 -6 3 -4 -4 -8 -16
-8 -12 0 -19 4 -16 9 3 5 -7 11 -24 13 -18 3 -31 0 -34 -9z"/>
<path d="M16795 21673 c-27 -8 -78 -20 -112 -28 -104 -21 -273 -124 -273 -166
0 -26 19 -24 44 5 24 28 252 147 330 172 28 9 55 20 61 25 11 11 13 11 -50 -8z"/>
<path d="M17290 21595 c-12 -15 16 -37 123 -94 26 -14 62 -34 80 -43 35 -20
77 -24 77 -8 0 17 -38 49 -67 56 -16 4 -35 13 -43 20 -9 7 -35 20 -59 29 -23
8 -55 24 -71 35 -24 17 -29 18 -40 5z"/>
<path d="M16405 21440 c3 -5 8 -10 11 -10 2 0 4 5 4 10 0 6 -5 10 -11 10 -5 0
-7 -4 -4 -10z"/>
<path d="M16830 21410 c-24 -15 -7 -19 20 -5 15 8 19 14 10 14 -8 1 -22 -3
-30 -9z"/>
<path d="M16638 21291 c-42 -27 -82 -58 -89 -68 -8 -11 -32 -33 -54 -49 -22
-16 -60 -48 -85 -71 -25 -24 -81 -71 -124 -106 -56 -44 -97 -87 -134 -142 -49
-72 -79 -107 -176 -206 -36 -37 -25 -54 31 -45 31 6 38 11 39 32 3 49 14 70
44 87 17 11 38 16 46 13 17 -7 54 10 54 24 0 5 -7 15 -15 23 -13 13 -11 20 17
58 42 58 344 359 360 359 11 0 132 93 173 131 26 25 -20 4 -87 -40z"/>
<path d="M17430 21331 c0 -6 5 -11 10 -11 6 0 28 -11 50 -25 45 -29 55 -20 12
12 -35 26 -72 38 -72 24z"/>
<path d="M16193 21275 c-6 -14 -7 -27 -3 -30 11 -7 40 23 40 41 0 23 -24 16
-37 -11z"/>
<path d="M17590 21223 c29 -26 64 -56 79 -67 14 -11 29 -25 33 -30 4 -6 10 -7
14 -4 13 14 -141 148 -171 148 -4 0 16 -21 45 -47z"/>
<path d="M16980 21215 c-19 -7 -28 -14 -20 -14 8 0 29 6 45 14 39 17 21 18
-25 0z"/>
<path d="M15969 21159 c100 -54 185 -89 217 -89 22 0 25 2 14 15 -17 20 -79
47 -174 75 -42 13 -79 27 -82 32 -3 4 -15 8 -27 8 -14 0 5 -15 52 -41z"/>
<path d="M16815 21162 c-79 -35 -222 -117 -260 -148 -28 -23 -28 -24 -5 -15
116 46 295 135 340 171 23 18 23 20 5 19 -11 0 -47 -12 -80 -27z"/>
<path d="M15769 21159 c-2 -5 -6 -89 -4 -89 0 0 18 9 40 20 22 11 51 20 65 20
24 0 24 1 -8 20 -32 19 -90 37 -93 29z"/>
<path d="M16260 21100 c-36 -24 -41 -30 -23 -30 13 0 37 13 55 30 43 38 26 38
-32 0z"/>
<path d="M17740 21094 c0 -8 20 -44 35 -62 29 -34 81 -105 100 -136 54 -87
245 -281 375 -382 41 -32 80 -66 87 -75 7 -9 21 -19 32 -22 35 -9 20 33 -21
61 -21 13 -38 31 -38 39 0 7 -16 30 -36 49 -19 20 -33 38 -30 41 2 3 -32 37
-77 77 -45 39 -91 82 -102 96 -11 13 -50 54 -87 90 -37 36 -84 88 -104 115
-21 28 -49 59 -63 70 -30 24 -71 46 -71 39z"/>
<path d="M17280 21080 c0 -5 15 -10 33 -10 56 0 170 -26 216 -49 23 -12 40
-18 36 -12 -26 43 -285 107 -285 71z"/>
<path d="M16965 21043 c-48 -11 -165 -53 -225 -81 -36 -16 -100 -46 -142 -65
-102 -47 -242 -126 -351 -198 -49 -33 -96 -59 -106 -59 -10 0 -24 -7 -31 -15
-7 -8 -17 -15 -22 -15 -16 0 -88 -83 -88 -101 0 -8 -6 -23 -13 -33 -12 -17
-15 -15 -40 17 -15 20 -27 48 -27 62 0 15 -7 54 -16 87 -18 70 -12 109 22 155
13 17 24 37 24 44 0 16 -171 -162 -192 -200 -10 -19 -33 -38 -54 -47 -21 -9
-33 -19 -28 -24 5 -5 56 -26 114 -48 58 -22 123 -48 145 -58 64 -30 306 -199
393 -275 44 -38 85 -69 91 -69 6 0 11 18 11 45 0 35 6 51 31 79 29 34 30 36
13 61 -16 25 -16 26 20 59 20 19 48 36 62 38 17 2 30 11 36 27 8 23 7 23 -32
17 -23 -3 -63 -18 -90 -32 -55 -28 -63 -27 -132 29 -42 34 -41 47 4 47 18 0
41 9 52 19 18 17 28 19 61 11 24 -6 44 -5 49 0 16 16 -2 24 -54 25 -76 2 -84
19 -33 65 51 45 227 165 298 203 54 29 215 87 241 87 8 0 12 5 9 10 -3 6 -35
10 -71 10 -44 0 -64 4 -64 13 0 16 52 50 120 78 81 33 89 49 15 32z m-495
-316 c0 -17 -22 -37 -140 -126 -76 -58 -100 -71 -125 -69 -47 5 -44 36 7 73
58 42 59 43 98 60 19 9 58 29 85 45 55 32 75 37 75 17z"/>
<path d="M17030 20883 c0 -18 27 -46 38 -39 14 9 16 36 3 36 -5 0 -16 3 -25 6
-9 3 -16 2 -16 -3z"/>
<path d="M17151 20856 c2 -2 18 -6 34 -10 22 -5 26 -4 15 4 -14 9 -59 15 -49
6z"/>
<path d="M16237 20803 c-4 -3 -7 -13 -7 -21 0 -12 3 -12 15 -2 8 7 15 16 15
21 0 11 -14 12 -23 2z"/>
<path d="M17810 20795 c7 -9 27 -25 44 -37 l31 -21 -34 36 c-34 36 -67 53 -41
22z"/>
<path d="M17922 20695 c8 -11 48 -61 89 -112 215 -265 259 -323 259 -341 0 -7
13 -41 29 -75 48 -103 59 -134 66 -181 7 -43 28 -66 40 -45 8 12 0 38 -41 127
-19 41 -34 76 -34 79 0 12 -74 189 -86 207 -22 31 -162 184 -253 276 -47 47
-78 76 -69 65z"/>
<path d="M16830 20589 c-69 -32 -73 -34 -84 -52 -24 -38 34 -40 92 -3 33 21
47 24 62 16 10 -5 27 -10 37 -10 10 0 29 -6 43 -13 14 -7 44 -19 68 -26 23 -8
42 -17 42 -22 0 -4 11 -10 25 -13 14 -4 25 -11 25 -16 0 -6 12 -10 27 -10 35
0 218 -123 248 -167 19 -29 24 -31 35 -18 11 13 16 13 42 -3 16 -9 42 -37 58
-62 15 -25 56 -74 90 -110 75 -78 105 -120 159 -224 41 -78 41 -79 41 -185 -1
-71 -6 -119 -16 -146 -9 -22 -21 -62 -27 -90 -10 -48 -10 -49 18 -70 16 -11
40 -30 52 -42 35 -34 58 -29 90 20 87 130 135 309 114 422 -10 51 -63 169 -82
181 -14 8 -11 -6 16 -71 19 -47 25 -78 25 -143 0 -88 -2 -95 -65 -182 l-40
-55 -5 150 -6 150 -73 149 c-71 143 -78 153 -176 252 -98 99 -105 104 -145
104 -37 0 -48 6 -104 60 -35 33 -67 60 -72 60 -6 0 -28 13 -50 29 -64 48 -133
80 -197 93 -42 9 -61 18 -65 30 -10 39 -132 50 -202 17z"/>
<path d="M14330 20413 c-43 -16 -199 -116 -225 -143 -30 -32 -30 -32 -5 -25
40 11 101 49 152 94 25 23 50 41 55 41 6 0 18 9 28 20 19 21 19 22 -5 13z"/>
<path d="M18400 20378 c0 -18 18 -34 28 -24 3 4 -2 14 -11 23 -16 16 -17 16
-17 1z"/>
<path d="M15431 20306 c19 -19 84 -66 90 -66 24 0 4 32 -31 50 -34 18 -71 27
-59 16z"/>
<path d="M18130 20176 c27 -40 50 -79 50 -85 0 -6 4 -11 9 -11 5 0 7 10 3 22
-5 21 -11 30 -38 61 -5 7 -19 26 -29 44 -10 18 -25 35 -32 37 -7 3 9 -28 37
-68z"/>
<path d="M14110 20160 c-20 -16 -22 -20 -7 -20 9 0 17 5 17 10 0 6 6 10 14 10
8 0 18 5 21 10 11 17 -19 11 -45 -10z"/>
<path d="M14095 20046 c-32 -26 -30 -45 4 -27 21 12 48 51 34 51 -4 0 -21 -11
-38 -24z"/>
<path d="M15135 19890 c11 -5 36 -9 55 -9 28 0 31 2 15 9 -11 5 -36 9 -55 9
-28 0 -31 -2 -15 -9z"/>
<path d="M15250 19889 c0 -10 53 -39 72 -39 16 0 -30 37 -54 44 -10 2 -18 0
-18 -5z"/>
<path d="M15350 19860 c0 -6 7 -10 15 -10 8 0 15 2 15 4 0 2 -7 6 -15 10 -8 3
-15 1 -15 -4z"/>
<path d="M14668 19838 c-16 -5 -28 -14 -28 -19 0 -5 14 -3 30 6 17 9 30 18 30
20 0 3 -1 5 -2 4 -2 0 -15 -5 -30 -11z"/>
<path d="M15195 19840 c3 -5 8 -10 11 -10 2 0 4 5 4 10 0 6 -5 10 -11 10 -5 0
-7 -4 -4 -10z"/>
<path d="M14605 19796 c-11 -7 -42 -24 -70 -39 -123 -67 -148 -85 -183 -135
-25 -35 -16 -44 13 -12 32 35 159 116 237 150 42 19 76 35 75 36 -13 9 -56 9
-72 0z"/>
<path d="M15280 19771 c0 -6 39 -53 88 -103 48 -51 100 -109 114 -128 20 -25
26 -29 22 -14 -12 45 -224 277 -224 245z"/>
<path d="M13333 19726 c-15 -19 -53 -81 -83 -137 -30 -57 -77 -130 -104 -163
-26 -34 -55 -74 -63 -91 -9 -16 -28 -45 -42 -64 -14 -18 -62 -106 -106 -195
l-80 -161 -85 -3 c-163 -6 -334 14 -453 54 -68 23 -121 47 -142 65 -36 32 -48
27 -60 -26 -4 -17 -16 -54 -26 -84 -11 -30 -26 -102 -34 -160 -26 -190 -37
-234 -62 -259 -12 -12 -25 -33 -27 -45 -9 -42 -35 -263 -41 -347 -6 -85 -20
-191 -70 -517 -30 -195 -30 -308 -1 -458 14 -70 17 -125 14 -245 -4 -152 -5
-157 -43 -250 -22 -57 -38 -113 -39 -140 -1 -43 1 -46 39 -65 45 -22 129 -25
210 -7 28 6 127 16 220 21 191 12 447 44 515 65 25 8 77 28 115 46 151 69 471
190 543 206 160 35 156 32 168 94 6 30 22 78 36 105 14 28 28 64 32 80 16 67
41 74 179 53 67 -10 80 -10 88 3 17 27 10 88 -15 127 -13 20 -38 88 -56 151
-17 62 -37 126 -45 141 -19 36 -113 120 -135 120 -18 0 -85 -45 -111 -76 -9
-10 -55 -75 -101 -144 -47 -69 -104 -153 -127 -186 -61 -89 -236 -251 -295
-274 -14 -5 -57 -27 -97 -50 -117 -66 -187 -90 -263 -90 -51 0 -68 4 -73 15
-3 9 -4 18 -2 20 2 2 47 11 99 20 128 22 282 101 338 173 47 62 26 172 -34
172 -13 0 -48 -12 -77 -26 -70 -36 -96 -43 -205 -58 -82 -11 -97 -11 -122 3
-63 36 -185 124 -231 168 -28 27 -73 63 -100 81 -27 18 -49 37 -49 42 0 10 56
30 87 30 13 0 52 -12 86 -26 100 -43 247 -85 319 -91 97 -8 140 11 226 101 75
79 118 164 147 291 9 36 29 94 44 128 59 126 76 215 76 392 l0 160 -59 170
-58 169 6 86 c12 142 36 283 55 315 9 17 39 44 66 62 101 64 98 58 106 174 8
125 12 141 57 248 27 63 33 87 25 100 -18 29 -49 24 -80 -13z"/>
<path d="M14310 19569 c0 -5 5 -7 10 -4 6 3 10 8 10 11 0 2 -4 4 -10 4 -5 0
-10 -5 -10 -11z"/>
<path d="M14246 19509 c-27 -35 -66 -81 -87 -101 -46 -44 -51 -62 -13 -47 31
11 51 -3 86 -60 12 -20 34 -52 50 -71 31 -38 35 -71 15 -110 -7 -14 -16 -34
-20 -44 -6 -16 -5 -17 7 -7 13 11 16 8 22 -13 4 -19 -12 -83 -55 -214 -50
-154 -81 -268 -81 -300 0 -3 5 -1 12 6 6 6 19 40 29 74 17 66 158 401 185 443
12 18 14 37 9 78 -5 40 -3 62 9 83 27 51 33 56 72 61 21 3 48 12 59 19 11 8
36 14 57 14 46 0 56 14 25 35 -27 17 -79 28 -249 50 -125 16 -148 22 -148 36
0 5 16 32 36 60 53 75 35 83 -20 8z m104 -159 c13 -8 13 -10 -2 -10 -9 0 -20
5 -23 10 -8 13 5 13 25 0z m47 -26 c-3 -3 -12 -4 -19 -1 -8 3 -5 6 6 6 11 1
17 -2 13 -5z"/>
<path d="M16202 19500 c0 -14 2 -19 5 -12 2 6 2 18 0 25 -3 6 -5 1 -5 -13z"/>
<path d="M14091 19494 c0 -11 3 -14 6 -6 3 7 2 16 -1 19 -3 4 -6 -2 -5 -13z"/>
<path d="M13550 19470 c-68 -6 -130 -25 -130 -41 0 -3 11 -11 24 -18 43 -23
147 7 186 54 7 8 9 14 4 13 -5 -1 -43 -4 -84 -8z"/>
<path d="M14010 19350 c0 -5 5 -10 11 -10 5 0 7 5 4 10 -3 6 -8 10 -11 10 -2
0 -4 -4 -4 -10z"/>
<path d="M14850 19340 l-25 -7 25 -12 c14 -7 36 -18 50 -26 14 -8 33 -15 43
-15 22 0 132 -55 174 -87 18 -14 38 -23 44 -21 15 5 -222 158 -244 158 -9 0
-19 5 -22 10 -7 11 -10 11 -45 0z"/>
<path d="M16052 19215 c1 -99 3 -118 8 -80 10 64 10 153 0 185 -5 15 -8 -26
-8 -105z"/>
<path d="M14056 19321 c-3 -4 -24 -14 -48 -21 -61 -20 -135 -63 -194 -112 -27
-24 -68 -51 -89 -60 -177 -76 -212 -92 -237 -109 -46 -33 -67 -105 -103 -344
-8 -55 -19 -120 -24 -145 -26 -116 -41 -239 -42 -333 0 -122 -22 -278 -49
-365 -12 -35 -17 -68 -14 -75 4 -7 4 -9 -1 -5 -9 9 -35 -36 -35 -60 0 -11 5
-9 20 8 13 15 20 18 21 9 0 -8 4 -3 10 9 5 13 7 28 3 33 -3 5 -1 9 4 9 13 0
38 68 56 155 2 6 8 29 14 52 7 22 15 74 18 114 3 41 7 75 9 77 2 2 10 -9 17
-25 15 -29 17 -188 4 -257 -4 -20 -2 -37 4 -41 6 -3 7 0 4 9 -3 9 -1 16 5 16
6 0 11 8 11 18 0 10 3 22 8 26 4 4 7 11 8 14 0 4 8 33 18 65 18 58 29 293 26
521 l-2 89 49 -7 c30 -4 56 -15 71 -29 22 -23 23 -25 12 -133 -5 -60 -10 -137
-10 -172 0 -74 -9 -93 -64 -145 -39 -37 -40 -38 -14 -34 53 8 55 -2 24 -125
-35 -141 -110 -367 -144 -433 -32 -64 -113 -184 -141 -209 -11 -11 -21 -25
-21 -33 0 -7 -4 -13 -10 -13 -5 0 -10 -4 -10 -10 0 -5 4 -10 9 -10 11 0 81 71
81 82 0 15 141 207 199 270 35 38 97 90 149 124 2 1 -11 23 -27 50 -56 87 -33
78 70 -27 55 -57 103 -99 105 -93 9 21 -86 198 -133 249 -25 28 -56 73 -69
100 -24 50 -24 50 -3 53 12 2 43 -6 71 -18 27 -12 53 -19 56 -15 3 3 -6 31
-21 61 -26 53 -27 58 -12 81 23 34 39 38 88 20 23 -8 58 -18 78 -21 46 -8 69
-31 41 -40 -11 -4 -27 -15 -36 -25 -15 -16 -14 -20 18 -57 19 -22 38 -57 41
-77 5 -25 19 -47 41 -65 34 -28 133 -86 104 -60 -24 20 -70 84 -70 96 0 6 18
21 40 32 22 11 40 24 40 29 0 18 -83 129 -140 187 -51 52 -69 64 -122 79 -70
19 -132 24 -164 12 -22 -8 -22 -7 -18 125 2 73 4 136 4 139 0 4 31 -4 69 -17
68 -24 181 -44 211 -38 8 1 29 3 45 4 26 1 22 4 -30 25 -33 13 -80 27 -105 30
-25 4 -79 16 -121 27 l-76 20 3 72 c2 39 6 85 9 102 8 45 114 175 182 225 32
23 75 57 95 75 38 34 97 64 125 64 8 0 17 -9 20 -20 13 -48 23 0 23 105 0 90
-3 114 -15 118 -8 4 -17 3 -19 -2z m-57 -130 c16 -10 7 -16 -36 -26 -36 -7
-42 1 -15 21 20 16 32 17 51 5z m-88 -61 c-13 -11 -20 -20 -16 -20 4 0 2 -7
-5 -15 -14 -16 -40 -20 -40 -6 0 18 45 61 65 60 19 0 19 -1 -4 -19z m-319
-205 c15 -42 17 -71 12 -180 -3 -71 -10 -134 -14 -139 -4 -4 -26 -5 -49 -1
-36 6 -41 10 -45 38 -14 89 -16 145 -10 214 6 62 12 82 31 101 34 34 55 25 75
-33z m124 26 c29 24 12 -9 -21 -41 -30 -29 -35 -31 -35 -14 0 25 32 72 38 55
3 -9 7 -9 18 0z"/>
<path d="M14769 19164 c-144 -147 -312 -340 -307 -354 12 -38 265 217 416 421
8 10 12 26 10 35 -2 12 -37 -18 -119 -102z"/>
<path d="M16273 19135 c0 -38 2 -53 4 -32 2 20 2 52 0 70 -2 17 -4 1 -4 -38z"/>
<path d="M16091 19140 c-5 -10 -9 -58 -16 -180 -11 -215 -12 -239 -1 -233 12
8 -1 -369 -15 -405 -6 -14 -12 -55 -14 -90 -3 -35 -15 -98 -29 -140 -13 -42
-27 -99 -31 -127 -10 -63 -75 -232 -135 -349 -119 -233 -187 -357 -235 -431
-29 -44 -54 -84 -56 -90 -19 -45 -64 -94 -142 -156 -51 -41 -112 -93 -137
-117 -25 -25 -65 -54 -90 -66 -25 -11 -59 -31 -77 -44 -17 -12 -49 -30 -69
-38 l-38 -16 17 24 c48 66 88 131 83 135 -3 3 -22 -9 -43 -26 -21 -17 -43 -31
-49 -31 -15 0 -38 83 -31 110 3 11 1 20 -4 20 -13 0 -91 -40 -163 -84 -37 -22
-73 -36 -93 -36 -23 0 -102 34 -242 104 -230 115 -293 152 -394 233 -38 30
-70 53 -71 51 -13 -14 -26 -51 -26 -72 0 -63 -36 -75 -160 -55 -62 10 -83 10
-92 1 -21 -21 -11 -80 26 -147 20 -36 36 -74 36 -85 0 -28 -147 -140 -184
-140 -9 0 -20 -9 -26 -19 -13 -25 -13 -61 0 -61 6 0 15 -11 22 -25 13 -28 -2
-55 -31 -55 -12 0 -13 2 -3 9 10 6 10 10 -1 20 -12 9 -16 7 -22 -11 -4 -13 -7
-26 -6 -30 1 -5 -3 -8 -8 -8 -14 0 -22 30 -12 48 5 9 12 37 16 61 4 24 14 60
22 79 8 19 12 36 10 39 -3 2 -23 -1 -46 -7 -32 -8 -41 -15 -41 -33 0 -12 -13
-58 -30 -100 -16 -43 -30 -89 -30 -101 0 -13 -7 -40 -15 -60 -33 -79 -29 -223
11 -382 5 -20 4 -25 -5 -20 -9 6 -11 -1 -6 -26 5 -25 2 -38 -9 -47 -9 -8 -16
-20 -16 -28 0 -9 -6 -13 -14 -10 -8 3 -17 -1 -20 -8 -3 -8 -20 -21 -39 -28
-39 -17 -189 -52 -262 -62 -27 -4 -53 -9 -57 -12 -5 -2 1 -22 12 -43 11 -22
20 -50 20 -62 0 -42 -46 -93 -139 -152 -88 -57 -107 -80 -76 -92 26 -10 16
-24 -17 -24 -53 -1 -164 -61 -248 -136 -29 -26 -108 -66 -165 -84 -22 -7 -88
-37 -147 -66 -104 -52 -109 -56 -154 -124 -51 -77 -71 -91 -156 -110 -32 -7
-58 -17 -58 -23 0 -5 39 -68 86 -140 48 -71 89 -140 91 -151 5 -24 -140 122
-189 191 -17 24 -37 43 -45 43 -7 0 -55 -28 -106 -63 -192 -131 -311 -187
-393 -187 -32 0 -56 27 -31 35 95 29 127 42 195 79 43 23 112 67 153 98 41 30
86 63 102 73 28 18 36 48 15 61 -7 4 -28 10 -47 14 -30 4 -42 16 -92 90 -37
56 -108 135 -205 231 -154 152 -202 189 -243 189 -13 0 -45 13 -71 29 l-47 29
3 -91 c6 -158 12 -448 9 -445 -2 2 -10 32 -19 67 -19 75 -54 157 -62 148 -4
-4 -6 -31 -5 -61 1 -60 -5 -71 -32 -52 -63 47 -117 335 -117 626 0 99 0 100
26 106 30 8 112 -2 128 -15 6 -5 26 -12 44 -16 17 -3 32 -11 32 -16 0 -5 6 -9
14 -9 8 0 44 -22 79 -49 36 -27 91 -66 123 -87 32 -20 97 -75 145 -121 47 -45
89 -83 93 -83 12 0 6 46 -10 69 -12 16 -15 34 -10 62 7 45 -1 64 -77 177 -28
42 -69 113 -91 157 -39 80 -79 185 -73 192 5 4 69 -92 104 -157 47 -86 142
-234 158 -245 10 -6 18 -6 26 2 8 8 -7 38 -60 118 -105 157 -234 411 -267 525
-15 52 -45 129 -67 170 -39 72 -117 174 -126 165 -2 -3 3 -13 12 -22 19 -22
81 -167 101 -237 38 -135 65 -508 38 -525 -6 -3 -12 -16 -13 -28 -3 -17 -8
-20 -19 -13 -12 8 -11 13 8 33 19 20 20 25 8 30 -8 3 -29 2 -45 -3 -29 -8 -31
-7 -41 30 -6 22 -15 42 -20 45 -14 8 -46 128 -60 220 -6 44 -27 148 -45 230
-19 83 -46 204 -61 270 -15 66 -29 137 -32 158 -4 33 -7 37 -34 37 -16 0 -77
-11 -136 -25 -108 -24 -249 -33 -323 -19 -35 6 -37 5 -66 -47 -43 -76 -128
-170 -206 -229 -37 -28 -67 -55 -67 -60 0 -5 -13 -24 -29 -42 -15 -18 -39 -53
-51 -78 -12 -25 -35 -61 -50 -80 -15 -19 -34 -48 -43 -65 -9 -16 -36 -52 -61
-80 l-46 -50 43 85 c24 47 55 103 69 125 38 60 78 142 78 160 0 13 -21 15
-137 15 -160 0 -251 14 -417 65 -142 43 -178 60 -278 136 -81 61 -147 99 -171
99 -24 0 -94 -62 -136 -121 -37 -52 -56 -98 -81 -196 -8 -34 -20 -49 -56 -74
-54 -37 -22 -35 -511 -37 l-373 -2 0 -34 c0 -19 4 -38 10 -41 19 -12 11 -107
-14 -169 -23 -57 -24 -75 -27 -301 -3 -212 -2 -243 13 -265 10 -14 60 -64 111
-112 52 -48 115 -118 140 -155 48 -73 217 -261 268 -299 56 -41 129 -115 124
-125 -6 -9 -32 0 -107 36 -21 10 -41 16 -44 12 -19 -19 17 -71 121 -172 152
-149 183 -199 291 -468 36 -89 74 -150 151 -238 60 -70 76 -104 82 -184 l6
-70 55 -29 c188 -98 548 -322 536 -333 -4 -5 -37 9 -191 81 -135 64 -138 65
-170 84 -28 17 -150 68 -253 106 -23 9 -68 16 -100 16 -87 0 -356 56 -527 110
-33 10 -85 25 -115 34 -30 8 -120 35 -200 59 -80 25 -179 52 -220 61 -41 10
-174 42 -295 71 -121 30 -278 63 -349 75 -71 11 -139 26 -150 32 -30 17 -288
22 -446 9 -123 -9 -196 -23 -350 -67 l-55 -16 45 -17 c25 -9 45 -23 45 -30 0
-9 -28 -24 -70 -38 -38 -12 -80 -28 -92 -34 -15 -8 -106 -12 -275 -13 -248 -1
-254 -2 -318 -27 -36 -15 -88 -41 -117 -58 -57 -35 -76 -71 -109 -198 l-18
-73 28 -82 c20 -58 32 -124 41 -219 7 -74 20 -153 29 -173 10 -25 19 -95 26
-205 13 -227 33 -323 92 -451 17 -36 39 -84 48 -106 28 -65 128 -136 365 -259
193 -100 285 -154 285 -169 0 -6 -27 -31 -60 -55 -36 -26 -76 -67 -101 -105
l-41 -61 5 -135 c5 -120 9 -145 37 -220 47 -128 38 -122 270 -171 77 -16 400
-124 400 -133 0 -5 -35 -6 -77 -2 -106 8 -253 10 -260 2 -10 -10 29 -34 76
-46 74 -19 252 -120 293 -167 16 -19 39 -84 58 -168 10 -44 19 -57 86 -115 79
-68 166 -158 197 -204 26 -38 69 -34 158 14 115 63 232 120 257 125 12 2 27 7
34 11 7 4 8 3 4 -5 -4 -6 0 -14 9 -17 12 -5 13 -9 4 -20 -9 -11 -8 -14 3 -14
10 0 18 -17 24 -52 l9 -53 63 3 c62 3 73 -3 50 -26 -9 -9 -8 -12 8 -13 15 -1
14 -3 -6 -9 l-25 -7 25 -11 c19 -8 21 -11 7 -11 -10 -1 -16 -5 -12 -10 8 -14
-12 -23 -103 -46 -46 -12 -83 -26 -84 -31 -2 -25 260 -108 441 -139 81 -14 86
-14 118 5 19 11 41 20 50 20 14 0 13 -4 -5 -23 -12 -13 -22 -26 -22 -29 0 -4
24 -14 53 -23 28 -9 97 -39 152 -65 55 -27 133 -58 174 -70 41 -11 84 -28 95
-39 51 -45 248 -171 269 -171 12 0 49 21 82 46 33 25 105 75 160 111 55 36
102 69 105 73 3 4 37 27 75 50 39 23 72 46 75 50 3 4 32 22 65 40 33 18 71 44
85 56 14 13 61 47 105 77 135 90 317 218 380 267 33 26 85 63 115 82 45 28 58
33 68 22 17 -19 15 -27 -5 -20 -15 6 -15 4 2 -14 14 -15 15 -20 4 -20 -11 0
-11 -2 -1 -8 9 -6 -1 -18 -32 -40 -24 -17 -91 -82 -147 -143 -57 -62 -139
-137 -182 -168 -178 -127 -239 -174 -393 -301 -50 -41 -144 -113 -208 -159
-64 -47 -116 -92 -116 -101 0 -10 38 -35 103 -68 160 -82 250 -132 272 -151
11 -10 94 -57 185 -106 91 -48 185 -102 210 -119 25 -17 46 -31 48 -32 9 -4
32 -123 27 -144 -19 -74 -157 -245 -252 -311 -47 -32 -143 -154 -143 -180 0
-21 26 -43 40 -34 5 3 10 -1 10 -9 0 -8 6 -21 13 -28 6 -7 34 -39 60 -70 30
-36 65 -65 93 -77 24 -11 47 -27 50 -35 3 -9 13 -16 21 -16 8 0 12 -4 9 -9
-12 -18 111 -64 309 -116 145 -38 174 -52 232 -113 35 -37 58 -53 70 -50 17 4
18 -10 21 -227 2 -221 3 -235 27 -294 24 -58 26 -76 35 -364 5 -166 15 -324
21 -352 12 -53 62 -159 79 -170 14 -9 12 -129 -3 -195 -15 -61 -55 -119 -144
-209 -115 -115 -243 -292 -243 -337 0 -20 6 -23 58 -29 108 -12 239 -51 268
-79 25 -26 52 -79 47 -93 -3 -8 3 -24 14 -36 36 -41 50 -72 48 -107 -2 -48
-17 -42 -89 31 -33 34 -70 65 -84 70 -13 5 -62 11 -110 14 -48 3 -107 8 -131
10 l-45 5 25 -26 c13 -14 53 -47 89 -72 36 -25 71 -52 78 -59 7 -7 18 -13 24
-13 6 0 31 -15 57 -34 60 -44 184 -96 228 -96 19 0 32 3 30 8 -3 4 44 8 104
10 118 3 176 17 243 60 23 15 54 28 70 29 26 3 27 1 15 -14 -16 -20 -30 -28
131 73 146 91 229 152 337 250 161 146 244 235 270 292 23 48 27 51 39 35 12
-16 15 -16 23 -3 7 10 6 17 -4 23 -22 12 -18 31 15 80 28 42 30 51 30 141 0
72 5 108 20 147 12 28 19 53 17 55 -5 6 -107 -95 -144 -143 -18 -23 -67 -63
-109 -89 l-75 -47 -117 7 c-64 4 -121 11 -127 17 -13 13 3 26 155 114 250 145
307 183 320 215 9 21 11 93 8 262 -5 218 -7 239 -32 323 -31 102 -31 119 11
304 25 112 25 114 11 270 -8 102 -11 240 -8 401 7 364 5 600 -4 644 -9 39 -9
39 17 32 25 -6 27 -4 27 27 0 18 -7 43 -16 55 -15 22 -44 30 -44 12 0 -30 -49
17 -50 48 0 9 6 8 24 -3 23 -15 24 -15 34 14 8 22 18 30 38 33 32 3 26 -10
104 233 29 88 63 183 76 212 18 36 23 60 18 80 -10 39 -49 117 -68 132 -29 24
-18 40 39 56 30 8 79 22 108 30 56 15 79 41 90 102 4 18 43 94 87 170 44 76
106 190 138 253 31 63 63 120 70 128 6 7 12 22 12 33 0 11 4 18 9 15 11 -7 35
22 51 64 8 19 17 37 20 40 17 14 40 57 40 76 0 15 10 26 30 34 22 9 50 43 100
119 73 112 119 164 160 179 15 6 69 6 140 -1 63 -5 126 -10 140 -10 44 0 183
21 250 38 111 28 350 117 359 134 5 9 9 53 10 98 4 183 83 365 246 569 72 90
24 172 -260 444 -147 141 -177 174 -242 263 -24 33 -89 215 -80 223 8 8 23
-25 32 -66 18 -87 74 -160 295 -385 223 -227 277 -292 301 -359 8 -21 20 -41
28 -44 7 -3 40 9 72 27 93 51 163 71 250 71 85 0 109 12 109 55 0 17 38 65
126 159 70 75 130 136 133 136 12 0 381 367 381 379 0 6 9 20 20 31 11 11 21
25 22 32 2 7 17 19 35 28 40 19 333 284 333 301 0 20 -93 150 -164 232 -71 81
-84 91 -183 139 -101 49 -188 107 -225 150 -24 27 -23 79 3 111 11 15 38 31
62 38 61 16 87 27 87 38 0 5 -14 8 -31 7 -45 -2 -47 19 -5 59 65 61 39 63 -36
2 -101 -81 -135 -95 -145 -58 -5 21 -29 35 -44 25 -5 -3 -9 -1 -9 4 0 5 -13
12 -29 15 -27 6 -81 49 -81 65 0 4 -19 23 -41 42 -59 49 -70 60 -64 71 4 5 -1
6 -9 3 -11 -4 -16 0 -16 15 0 12 -5 21 -12 21 -6 0 -20 7 -30 17 -12 11 -18
12 -18 3 0 -7 -7 -10 -17 -5 -13 4 -12 1 5 -15 26 -24 27 -33 8 -52 -19 -19
-32 -168 -16 -178 8 -5 2 -10 -18 -15 -17 -3 -43 -20 -57 -37 -24 -28 -27 -29
-38 -13 -7 9 -22 15 -32 13 -14 -2 -20 5 -26 30 -6 28 -4 32 10 27 31 -12 36
-10 39 20 3 29 3 29 -12 10 -22 -29 -20 0 4 54 15 33 17 42 6 38 -12 -5 -13
-1 -5 23 6 16 17 31 26 34 11 4 13 2 9 -9 -3 -9 0 -15 9 -15 9 0 15 10 15 25
0 34 18 32 23 -2 4 -27 4 -27 6 3 0 20 -5 34 -14 38 -8 3 -15 13 -15 22 0 24
49 86 61 78 15 -9 -10 32 -53 88 -54 70 -140 216 -136 230 2 6 33 -27 68 -73
35 -46 88 -109 118 -141 53 -55 54 -56 73 -37 10 10 27 19 37 19 14 0 15 -2 2
-10 -9 -6 -10 -10 -3 -10 6 0 14 4 17 9 3 4 17 6 31 3 32 -6 20 -21 -21 -28
-16 -3 -31 -9 -32 -15 -2 -5 -8 -7 -12 -4 -5 3 -7 12 -3 20 3 8 1 15 -5 15 -5
0 -13 -8 -16 -17 -7 -17 6 -32 49 -55 18 -10 19 -9 7 5 -12 14 -12 19 1 32 10
9 18 11 22 5 3 -5 1 -10 -4 -10 -35 0 11 -69 49 -74 14 -2 33 -7 43 -11 24
-10 25 -8 37 55 6 30 16 63 24 75 16 24 31 119 21 135 -10 16 -32 -6 -40 -40
-9 -41 -34 -58 -90 -61 -38 -3 -50 0 -50 11 0 8 -4 21 -8 28 -5 7 -2 14 7 18
8 3 13 11 10 17 -6 18 36 42 46 27 12 -19 32 -1 24 22 -4 13 -2 18 4 14 5 -3
12 1 16 9 3 8 14 15 25 15 12 0 28 11 37 25 18 28 44 33 44 10 0 -17 26 -20
36 -4 3 6 1 22 -6 35 -12 21 -10 26 16 46 70 55 75 63 94 142 37 147 22 174
-59 107 -27 -23 -79 -55 -116 -72 -54 -26 -75 -31 -113 -26 -32 3 -56 0 -77
-10 -21 -12 -72 -17 -186 -21 -198 -6 -205 0 -89 78 72 48 137 103 160 134 10
16 5 14 -20 -7 -64 -51 -224 -172 -245 -184 -54 -33 -79 -8 -53 54 18 45 27
228 16 363 -9 119 -33 223 -63 280 -8 14 -28 51 -45 83 -17 32 -46 75 -65 96
-19 21 -35 43 -35 49 0 6 -21 30 -47 54 -26 24 -75 68 -108 99 -65 62 -129 97
-217 123 -31 9 -60 21 -63 26 -3 6 -14 10 -24 10 -10 0 -24 6 -30 13 -8 11 -5
17 14 27 14 7 31 23 39 36 24 35 299 213 436 280 171 85 187 89 375 88 134 0
174 -4 245 -23 146 -39 155 -41 173 -35 9 3 17 10 17 15 0 13 -63 39 -95 39
-14 0 -25 5 -25 12 0 39 216 192 447 316 143 77 201 99 337 131 68 16 97 28
120 50 85 80 222 147 340 166 86 14 102 14 173 0 106 -22 145 -43 237 -125
158 -141 191 -218 184 -432 -3 -104 -6 -119 -39 -196 -66 -147 -119 -231 -199
-307 -108 -104 -169 -155 -187 -155 -8 0 -27 -8 -41 -19 -61 -42 -244 -131
-271 -131 -21 0 -49 -17 -101 -60 -39 -33 -76 -60 -81 -60 -13 0 -11 44 3 58
8 8 8 12 1 12 -14 0 -103 -96 -103 -112 0 -7 -26 -44 -57 -83 -31 -38 -72 -95
-92 -125 -45 -69 -159 -218 -252 -330 -79 -94 -74 -73 -51 -218 8 -50 24 -58
33 -16 5 22 7 17 8 -23 0 -30 -3 -53 -9 -53 -5 0 -10 7 -10 15 0 8 -4 15 -10
15 -5 0 -10 -22 -10 -50 0 -27 3 -50 8 -50 12 0 62 46 62 58 0 6 -6 13 -12 15
-8 3 -6 6 5 6 16 1 17 3 1 32 -12 24 -12 30 -2 26 7 -2 12 -10 11 -16 -4 -14
1 -14 42 3 30 13 35 13 47 -2 11 -14 10 -15 -7 -8 -14 5 -17 4 -9 -4 8 -8 19
-6 40 5 29 15 29 15 4 16 -23 0 -23 1 -5 9 11 5 34 9 52 9 42 1 109 31 194 86
39 25 114 68 167 95 53 27 153 86 222 129 69 44 154 98 190 121 36 23 92 59
125 80 114 74 159 99 168 93 14 -8 -2 -243 -19 -275 -16 -31 -19 -78 -5 -78
16 0 102 61 108 76 3 8 15 14 27 14 11 1 44 14 71 30 28 16 60 35 73 42 19 9
22 17 17 37 -22 89 -18 123 30 265 65 195 78 275 64 401 -6 55 -17 116 -24
135 -31 79 -35 112 -19 166 13 45 20 54 48 64 20 6 45 27 63 53 82 113 253
306 400 452 61 60 116 121 121 135 8 23 7 299 -2 307 -2 2 -10 -2 -17 -10 -8
-7 -27 -22 -43 -32 l-29 -19 8 24 c8 25 68 119 126 196 18 24 33 59 36 84 l6
43 -104 -7 c-57 -3 -158 -17 -224 -30 -133 -27 -245 -39 -245 -26 0 11 45 25
165 51 133 28 243 63 340 107 98 44 94 41 71 58 -13 9 -47 14 -100 14 -45 0
-121 7 -171 16 -98 18 -276 14 -375 -7 -38 -8 -67 -8 -109 0 -39 8 -67 8 -91
1 -19 -6 -79 -15 -132 -21 -54 -5 -116 -16 -139 -24 -23 -8 -67 -15 -99 -15
-32 0 -75 -7 -96 -16 -24 -10 -50 -14 -73 -9 -56 10 -84 10 -111 1 -21 -7 -22
-7 -10 5 8 8 27 22 41 31 14 9 32 31 39 50 8 18 36 68 63 112 27 43 50 87 52
97 2 10 9 28 15 40 10 17 9 31 0 60 -7 22 -18 39 -24 39 -25 -1 -96 -80 -131
-145 -21 -38 -44 -77 -51 -86 -8 -8 -14 -19 -14 -22 0 -12 -74 -121 -90 -134
-34 -26 -26 -2 53 167 82 176 100 213 135 273 34 59 57 75 46 32 -3 -14 -4
-25 -1 -25 3 0 20 44 38 98 34 103 63 167 85 190 8 7 12 18 9 23 -4 5 1 9 10
9 9 0 25 -16 37 -35 11 -20 26 -34 32 -32 19 6 19 38 -2 60 -28 32 -33 66 -17
120 15 50 12 56 -17 31 -33 -31 -34 -2 -9 270 13 144 21 187 31 181 5 -3 10 7
12 22 3 26 6 28 45 27 30 0 40 3 36 13 -3 7 -11 13 -18 13 -7 0 -25 10 -41 23
-16 12 -31 22 -34 22 -4 0 -6 7 -9 54 -2 31 -12 0 -26 -80 -8 -46 -20 -160
-26 -254 -6 -93 -14 -198 -16 -233 -3 -44 -1 -68 9 -79 11 -14 11 -16 -2 -8
-13 8 -13 7 -1 -9 9 -10 11 -20 5 -24 -5 -4 -14 -16 -20 -27 -11 -21 -99 -85
-116 -85 -6 0 -8 12 -4 28 4 15 11 81 16 147 6 66 12 126 15 133 10 28 6 379
-5 432 -7 30 -15 96 -20 145 -4 50 -8 88 -9 85z m159 -2010 c174 -13 200 -18
200 -35 0 -14 -53 -22 -255 -34 -107 -7 -143 -13 -200 -37 -38 -15 -72 -30
-75 -33 -9 -11 -114 -60 -142 -66 -16 -4 -28 -11 -28 -16 0 -5 -16 -9 -35 -9
-19 0 -35 -4 -35 -10 0 -5 -9 -10 -21 -10 -13 0 -18 -4 -13 -12 5 -10 4 -10
-6 -1 -10 9 -20 7 -45 -13 -35 -27 -75 -32 -75 -10 0 8 35 52 78 97 42 44 81
88 86 96 11 19 119 69 183 84 60 14 168 26 208 22 17 -1 95 -7 175 -13z m364
-186 c3 -8 2 -12 -4 -9 -6 3 -10 10 -10 16 0 14 7 11 14 -7z m-1434 -258 c0
-3 -14 -26 -32 -53 -41 -61 -97 -116 -136 -136 -42 -20 -92 -31 -92 -19 0 12
109 115 139 132 26 14 30 16 76 54 28 24 45 32 45 22z m-314 -106 c-50 -68
-65 -84 -95 -96 -52 -22 -97 -18 -365 32 -70 13 -155 24 -187 24 -63 0 -72 7
-37 29 43 27 75 29 384 28 278 -2 310 -4 300 -17z m-749 -78 c18 -11 7 -22
-97 -97 -105 -77 -178 -134 -227 -179 -39 -36 -42 -23 -9 42 40 79 173 194
259 223 60 21 58 21 74 11z m2893 -51 c0 -20 -189 -151 -218 -151 -19 0 -27
30 -11 45 14 14 208 114 222 115 4 0 7 -4 7 -9z m-236 -382 c-8 -13 -24 -1
-24 18 0 13 3 13 15 3 8 -7 12 -16 9 -21z m-3138 -384 c170 -56 303 -141 404
-256 81 -92 130 -166 153 -232 20 -53 20 -61 6 -85 -27 -50 -51 -35 -80 48
-15 42 -35 89 -45 106 -74 117 -259 293 -359 340 -27 13 -95 35 -150 50 -119
31 -123 33 -100 51 28 20 58 16 171 -22z m2579 -114 c-20 -27 -39 -51 -43 -53
-4 -2 -18 -18 -30 -35 -15 -21 -38 -37 -63 -44 -27 -9 -39 -18 -39 -31 0 -12
-4 -16 -11 -12 -7 4 -9 0 -5 -13 5 -17 -4 -25 -51 -51 -67 -35 -210 -85 -223
-77 -11 7 16 100 41 142 11 18 30 35 42 39 27 8 144 58 211 90 28 13 58 24 68
24 10 0 42 16 71 35 28 19 55 35 59 35 5 0 -8 -22 -27 -49z m407 -71 c-2 -16
-8 -30 -13 -30 -11 0 -11 3 1 34 13 34 18 33 12 -4z m-3546 -85 c105 -30 225
-97 311 -172 106 -93 244 -292 247 -357 1 -25 -4 -31 -31 -39 -44 -13 -57 -1
-102 98 -75 159 -180 280 -308 351 -95 53 -202 93 -250 94 -46 0 -59 20 -25
39 27 16 63 13 158 -14z m-113 -76 c175 -44 326 -143 425 -277 52 -70 112
-184 112 -213 0 -9 8 -36 19 -60 10 -24 22 -64 25 -88 6 -39 5 -43 -9 -31 -8
7 -20 31 -26 54 -6 22 -26 73 -43 111 l-33 71 -79 21 c-43 12 -113 29 -154 37
-211 46 -282 72 -367 135 -58 42 -104 124 -101 176 3 37 5 40 39 46 19 3 46
13 59 22 31 21 35 21 133 -4z m3594 -66 c5 -15 -28 -26 -41 -13 -8 8 -7 14 4
20 17 11 32 8 37 -7z m-262 -123 c-3 -5 -11 -10 -16 -10 -6 0 -7 5 -4 10 3 6
11 10 16 10 6 0 7 -4 4 -10z m295 -40 c0 -5 -4 -10 -10 -10 -5 0 -10 5 -10 10
0 6 5 10 10 10 6 0 10 -4 10 -10z m-979 -287 c-9 -16 -10 -16 -11 4 0 12 3 30
7 40 7 16 8 16 11 -4 2 -12 -1 -30 -7 -40z m-3261 -79 c-8 -103 -13 -342 -11
-492 l1 -63 53 6 c222 26 484 82 614 132 7 3 13 -2 13 -10 0 -43 -258 -211
-429 -278 -115 -46 -298 -89 -380 -89 l-71 0 -20 40 c-16 31 -20 59 -20 132 0
144 43 303 130 487 39 81 70 149 70 153 0 9 52 99 55 96 2 -2 -1 -53 -5 -114z
m3292 94 c-7 -7 -12 -8 -12 -2 0 14 12 26 19 19 2 -3 -1 -11 -7 -17z m108 -2
c0 -7 -92 -56 -105 -56 -16 0 -27 27 -15 35 6 4 10 -1 10 -9 0 -9 7 -16 15
-16 8 0 15 5 15 10 0 6 6 10 14 10 7 0 19 7 26 15 11 13 40 21 40 11z m-354
-40 c-3 -13 -8 -30 -11 -38 -7 -17 31 -68 50 -68 7 0 15 7 19 15 3 8 12 12 21
9 8 -3 15 -1 15 5 0 6 7 11 15 11 13 0 13 -3 3 -20 -7 -11 -20 -20 -28 -20 -9
0 -25 -7 -36 -15 -10 -8 -29 -15 -40 -15 -12 0 -24 -7 -28 -15 -5 -13 -10 -13
-45 1 -38 15 -41 15 -63 -5 -54 -49 -63 -56 -75 -57 -7 -1 -13 2 -13 7 0 5 4
9 9 9 5 0 11 13 14 28 7 35 79 110 120 125 10 4 16 10 13 15 -2 4 -1 14 5 22
7 13 9 13 9 0 1 -9 5 -6 10 8 13 31 44 30 36 -2z m210 -48 c4 -6 3 -8 -4 -4
-6 3 -13 2 -17 -4 -9 -15 -25 -12 -25 5 0 18 36 20 46 3z m-6773 -93 c62 -14
168 -37 237 -51 719 -142 696 -139 1000 -154 113 -5 223 -15 245 -22 46 -14
136 -101 167 -162 36 -70 10 -179 -53 -225 l-31 -23 -130 17 c-72 9 -142 21
-155 26 -13 5 -77 14 -141 19 -336 30 -437 48 -724 134 -121 36 -279 109 -376
173 -115 76 -245 234 -229 276 9 24 58 22 190 -8z m2382 -87 c25 -11 37 -42
13 -33 -7 3 -59 1 -116 -3 -57 -4 -108 -5 -114 -1 -15 10 100 47 149 48 23 1
54 -4 68 -11z m2484 -5 c0 -10 0 -43 1 -74 3 -114 -101 -309 -157 -297 -10 2
-17 8 -16 14 6 24 36 103 54 140 10 22 19 47 19 55 0 9 14 28 30 44 17 16 30
37 30 47 0 20 26 88 34 88 3 0 5 -8 5 -17z m-2789 -61 c0 -9 -126 -73 -192
-97 -53 -20 -138 -14 -138 10 0 15 27 23 111 32 34 3 92 19 128 34 68 29 91
35 91 21z m1088 -58 c16 -5 22 -14 22 -34 0 -33 -18 -40 -105 -40 -33 0 -70 3
-82 6 -32 9 -29 40 5 58 27 15 118 21 160 10z m2307 -24 c3 -5 -1 -10 -10 -10
-9 0 -25 -9 -37 -20 -12 -11 -30 -20 -39 -20 -10 0 -25 -3 -34 -7 -15 -5 -16
-3 -7 14 6 11 8 24 4 28 -4 4 2 5 13 3 12 -2 19 2 18 10 -4 15 83 17 92 2z
m-287 -147 c-9 -2 -20 -13 -23 -23 -4 -13 -12 -16 -28 -12 -13 3 -16 7 -8 10
11 4 11 6 0 14 -10 7 -8 8 9 5 12 -3 22 -1 22 4 0 5 10 8 23 8 16 -1 17 -3 5
-6z m-545 -176 c24 -45 65 -125 91 -177 25 -52 60 -117 77 -145 31 -49 103
-228 119 -295 5 -19 18 -64 29 -98 12 -35 21 -84 21 -108 0 -42 -1 -44 -30
-44 -17 0 -50 9 -73 21 -43 22 -107 76 -107 91 0 5 -9 21 -20 36 -19 26 -19
62 -1 62 4 0 17 9 29 20 19 18 21 27 16 88 -3 37 -16 101 -29 142 -25 81 -142
343 -173 388 -20 28 -42 86 -42 108 0 11 5 11 24 3 14 -7 42 -45 69 -92z
m-1838 -59 c14 -6 28 -22 31 -37 3 -14 10 -34 15 -45 7 -12 7 -22 1 -28 -7 -7
-12 1 -17 22 -4 17 -20 43 -36 57 -43 38 -40 52 6 31z m890 -215 c0 -81 -3
-95 -21 -114 -34 -34 -44 -16 -44 76 0 103 11 138 43 133 21 -3 22 -7 22 -95z
m-1085 57 c0 -5 -5 -10 -11 -10 -5 0 -7 5 -4 10 3 6 8 10 11 10 2 0 4 -4 4
-10z m-725 -30 c103 -59 149 -130 149 -235 1 -84 -16 -107 -123 -159 -203
-100 -501 -150 -673 -115 -64 13 -289 81 -340 103 -59 25 -108 73 -108 107 0
46 30 59 265 115 62 15 158 48 220 76 155 70 213 86 353 97 68 6 134 16 150
24 39 21 49 20 107 -13z m3400 -31 c8 -12 -17 -56 -58 -103 -41 -48 -69 -46
-33 3 33 44 21 71 -31 71 -35 0 -36 1 -18 19 13 16 30 20 76 20 32 0 61 -5 64
-10z m555 -99 c0 -5 -7 -10 -15 -10 -8 0 -15 5 -15 10 0 6 7 10 15 10 8 0 15
-4 15 -10z m-3376 -36 c21 -20 20 -27 -3 -48 -15 -14 -24 -15 -40 -7 -19 11
-19 12 -3 41 20 34 25 36 46 14z m3103 -36 c-3 -8 -6 -5 -6 6 -1 11 2 17 5 13
3 -3 4 -12 1 -19z m236 -15 c-7 -2 -21 -2 -30 0 -10 3 -4 5 12 5 17 0 24 -2
18 -5z m-160 -71 c-4 -16 0 -18 26 -14 23 3 31 0 31 -11 0 -9 8 -21 18 -27 15
-10 14 -11 -6 -6 -18 3 -22 1 -18 -10 8 -22 -12 -17 -39 11 -24 23 -32 54 -18
68 10 11 11 8 6 -11z m-2303 -262 c12 -16 18 -30 13 -30 -5 0 -17 14 -26 30
-10 17 -16 30 -13 30 2 0 14 -13 26 -30z m1024 8 c34 -54 -138 -388 -200 -388
-21 0 -17 22 16 92 16 34 30 71 30 81 0 27 -33 20 -81 -16 -56 -43 -78 -54
-145 -76 -43 -15 -54 -16 -54 -5 0 7 10 19 23 25 12 7 77 65 143 130 116 112
213 182 243 177 8 -2 19 -11 25 -20z m-300 -43 c-9 -14 -18 -25 -21 -25 -5 0
5 18 20 38 17 22 18 13 1 -13z m-675 -39 c-3 -3 -11 5 -18 17 -13 21 -12 21 5
5 10 -10 16 -20 13 -22z m-5035 -56 c29 -16 60 -38 70 -49 18 -20 25 -65 12
-78 -4 -4 -32 6 -62 21 -42 21 -77 30 -139 35 -85 7 -109 17 -118 51 -8 31 35
47 132 49 42 1 64 -5 105 -29z m5076 20 c10 -5 29 -34 43 -62 13 -29 40 -73
59 -98 51 -68 176 -262 238 -370 29 -52 61 -106 71 -120 9 -14 52 -93 94 -175
42 -81 87 -162 100 -179 69 -92 178 -331 219 -481 14 -49 35 -116 46 -148 11
-31 23 -83 26 -115 8 -69 -12 -196 -32 -213 -21 -17 -192 -3 -268 22 -81 27
-205 86 -290 137 -63 38 -121 60 -132 49 -3 -2 0 -16 5 -31 9 -23 8 -26 -9
-26 -15 0 -21 9 -26 39 -5 32 -17 49 -55 81 -38 32 -49 48 -49 71 0 16 2 29 5
29 3 0 29 -19 58 -43 80 -65 139 -91 190 -83 31 5 73 -1 156 -23 63 -16 119
-27 126 -25 7 3 18 32 24 65 23 113 -15 259 -134 525 -30 67 -55 128 -55 136
0 8 -5 19 -12 26 -6 6 -9 14 -7 17 8 7 84 -114 113 -180 72 -165 87 -173 82
-43 -3 83 -8 105 -50 210 -26 64 -77 168 -113 230 -35 62 -83 149 -106 193
-22 44 -49 91 -59 105 -28 36 -114 181 -168 280 -25 47 -55 99 -66 115 -28 39
-56 95 -49 95 4 0 15 -4 25 -10z m-4705 -214 c37 -41 76 -78 88 -82 27 -8 98
-74 91 -85 -4 -8 -93 19 -136 42 -12 6 -60 47 -105 90 -77 74 -83 78 -117 72
-38 -6 -66 8 -66 34 0 24 30 26 61 4 27 -20 30 -21 36 -4 18 49 57 30 148 -71z
m-608 -91 c12 -27 26 -84 32 -125 7 -41 21 -121 33 -177 21 -105 19 -153 -7
-153 -28 0 -44 46 -65 185 -11 77 -27 165 -35 195 -16 58 -20 132 -8 144 10
10 28 -13 50 -69z m5801 -1 c34 -24 26 -58 -15 -62 -41 -4 -60 24 -37 56 18
26 23 27 52 6z m271 -37 c11 -19 28 -65 36 -103 9 -38 23 -88 32 -112 18 -47
14 -165 -6 -185 -14 -14 -76 17 -97 48 -105 151 -174 271 -174 302 0 33 15 28
47 -14 43 -59 100 -113 119 -113 15 0 16 10 10 105 -8 114 -2 127 33 72z
m1692 -28 c-12 -10 -43 -25 -69 -34 -26 -10 -104 -39 -174 -66 -112 -43 -226
-79 -250 -79 -16 0 -7 20 25 56 70 80 57 75 175 73 100 -1 112 1 192 33 47 19
93 35 103 34 17 0 17 -2 -2 -17z m-3830 -67 c31 -13 77 -65 85 -98 3 -13 4
-57 2 -97 -4 -67 -10 -84 -94 -252 -50 -99 -120 -227 -155 -285 -115 -184
-172 -274 -196 -310 -14 -19 -49 -71 -78 -115 -30 -44 -84 -113 -120 -153
-183 -199 -431 -291 -500 -186 -30 47 -33 42 152 263 42 49 94 127 122 181 27
52 82 151 121 220 39 69 132 248 206 399 116 235 199 382 250 441 10 12 29 14
96 9 46 -3 95 -11 109 -17z m3299 -65 c0 -13 -11 -34 -24 -46 -24 -22 -133
-57 -144 -46 -8 8 22 35 87 79 62 42 81 45 81 13z m-1700 3 c0 -12 -71 -90
-83 -90 -4 0 11 22 35 50 46 53 48 55 48 40z m2603 -6 c-4 -13 -26 -11 -30 3
-2 6 4 10 14 9 10 -2 17 -7 16 -12z m54 -41 c-11 -10 13 -33 34 -33 11 0 19
-5 19 -11 0 -5 6 -7 13 -3 8 5 8 2 -2 -9 -28 -34 -91 -10 -106 41 -5 19 -3 22
21 22 15 0 24 -3 21 -7z m-1177 -42 c0 -18 -48 -38 -139 -59 -52 -12 -96 -20
-98 -18 -2 2 17 12 44 22 26 9 73 27 103 40 59 24 90 29 90 15z m-2167 -320
c32 -13 64 -46 89 -96 20 -37 20 -50 14 -250 -10 -279 -42 -451 -126 -671 -23
-60 -50 -140 -61 -178 -41 -143 -142 -256 -230 -256 -25 0 -26 -16 19 240 17
96 36 234 42 305 29 337 39 514 40 671 0 148 2 175 18 193 33 41 138 63 195
42z m297 -131 c53 -27 70 -55 70 -115 0 -41 -12 -75 -69 -195 -38 -80 -85
-179 -104 -221 -32 -70 -56 -97 -71 -82 -13 13 -6 109 10 132 13 19 17 52 18
170 0 80 -1 182 -4 226 -5 77 -4 80 20 92 36 18 85 16 130 -7z m-4210 -280 c8
-5 12 -11 9 -14 -3 -3 -14 1 -25 9 -21 16 -8 20 16 5z m1981 -29 c46 -16 111
-40 144 -53 57 -23 60 -26 60 -58 0 -56 -19 -58 -146 -10 -63 24 -124 50 -136
57 -32 21 -43 93 -14 93 4 0 45 -13 92 -29z m671 -326 c60 -29 95 -54 200
-140 40 -33 89 -72 109 -87 32 -24 68 -82 58 -93 -3 -2 -22 0 -43 5 -26 6 -56
25 -90 58 -61 60 -215 176 -271 204 -64 32 -68 38 -49 59 22 24 23 24 86 -6z
m498 -410 c55 -56 39 -58 -29 -5 -56 44 -60 50 -33 50 10 0 38 -20 62 -45z
m1966 -97 c-9 -5 -16 -15 -16 -22 0 -25 -34 -57 -70 -66 -44 -10 -147 -47
-178 -62 -19 -10 -25 -9 -32 2 -14 22 -12 29 15 54 21 20 68 41 201 90 38 14
104 18 80 4z m-620 -336 c-10 -9 -56 20 -56 35 0 11 8 9 31 -7 16 -12 28 -25
25 -28z m-259 -38 c-7 -7 -64 22 -72 37 -4 6 12 1 35 -11 23 -12 40 -24 37
-26z m-453 -243 c3 -5 -1 -11 -9 -15 -9 -3 -15 0 -15 9 0 16 16 20 24 6z m60
-27 c30 -11 16 -43 -39 -90 -35 -31 -52 -51 -46 -57 13 -13 53 14 93 59 42 47
79 46 124 -3 31 -34 36 -53 13 -53 -6 0 -36 -21 -67 -46 -49 -40 -60 -45 -92
-40 -23 3 -44 16 -62 37 -15 17 -45 40 -68 50 -38 17 -42 22 -36 46 12 46 53
79 96 75 24 -3 40 2 49 12 15 18 14 18 35 10z m702 -48 c3 -8 4 -25 2 -38 -2
-19 -5 -17 -15 15 -10 35 1 55 13 23z m-457 -130 c10 -11 8 -16 -8 -21 -19 -6
-81 -80 -81 -96 0 -4 25 9 55 29 33 22 55 44 55 54 0 21 1 21 35 6 24 -11 36
-48 15 -48 -6 0 -37 -25 -71 -56 -62 -57 -92 -65 -97 -27 -2 15 -13 24 -33 28
-45 10 -46 30 -3 67 21 18 47 43 58 56 22 25 58 29 75 8z m-61 -498 c14 16 23
18 57 10 22 -4 46 -17 52 -27 10 -16 9 -18 -8 -14 -10 3 -19 1 -19 -5 0 -9
-174 -71 -278 -98 -44 -12 -139 -20 -107 -9 6 2 33 10 62 19 29 9 64 27 79 41
23 22 63 32 98 26 5 -1 6 5 3 14 -4 8 -3 15 2 15 5 0 12 12 16 28 l7 27 9 -24
c9 -23 9 -23 27 -3z m-220 -64 c21 -6 21 -7 5 -21 -17 -13 -16 -13 7 -7 29 8
25 2 -10 -16 -14 -7 -21 -9 -17 -4 4 4 -3 14 -15 21 l-23 12 25 2 c23 1 23 2
-5 9 -20 5 -23 8 -10 9 11 0 30 -2 43 -5z m-4 -729 c8 -8 19 -15 25 -15 12 0
15 -13 5 -23 -10 -9 -42 11 -54 33 -13 24 2 27 24 5z m-337 -62 c20 -8 13 -20
-66 -120 -70 -89 -156 -162 -172 -146 -11 11 38 252 54 272 9 10 29 12 90 6
44 -3 86 -9 94 -12z m314 -267 c25 -40 41 -98 30 -109 -4 -4 -16 12 -25 37
-10 26 -31 55 -52 71 -23 17 -34 34 -34 51 l0 25 31 -22 c17 -12 40 -36 50
-53z m58 -222 c31 -202 43 -341 37 -422 -7 -97 -27 -181 -50 -217 -49 -75
-161 -145 -232 -145 -50 0 -161 43 -226 88 -37 25 -50 42 -63 82 -16 47 -16
52 2 87 26 53 60 74 130 80 56 5 62 4 96 -26 27 -25 39 -45 48 -87 9 -39 17
-54 29 -54 28 0 84 43 104 82 19 34 19 37 2 62 -9 15 -41 42 -70 61 -100 64
-124 113 -92 190 18 41 35 51 111 60 51 7 66 13 98 45 36 36 37 40 37 107 0
107 24 111 39 7z m-1499 -2964 c0 -5 -7 -10 -15 -10 -8 0 -15 5 -15 10 0 6 7
10 15 10 8 0 15 -4 15 -10z"/>
<path d="M15350 14743 c0 -5 5 -15 10 -23 8 -12 10 -11 10 8 0 12 -4 22 -10
22 -5 0 -10 -3 -10 -7z"/>
<path d="M15326 19017 c3 -10 9 -15 12 -12 3 3 0 11 -7 18 -10 9 -11 8 -5 -6z"/>
<path d="M15350 18981 c0 -5 7 -16 15 -25 8 -8 19 -25 25 -38 6 -13 19 -37 29
-54 10 -17 22 -45 26 -63 7 -31 6 -32 -22 -24 -15 4 -91 7 -168 5 l-139 -3
-91 -48 c-222 -117 -371 -251 -315 -286 6 -4 8 -24 4 -48 l-5 -42 26 30 c117
131 200 191 240 175 11 -5 14 -9 6 -9 -10 -1 -12 -10 -8 -35 5 -29 0 -41 -24
-68 -34 -40 -36 -60 -7 -87 17 -17 19 -25 11 -43 -14 -30 -4 -53 45 -109 28
-31 54 -49 84 -58 24 -7 53 -22 65 -33 22 -20 23 -20 75 -3 64 21 140 59 155
77 30 37 76 207 83 308 9 124 17 153 59 210 17 24 31 46 31 51 0 4 -13 12 -29
17 -16 6 -38 27 -52 48 -13 22 -27 41 -31 42 -4 2 -8 8 -8 14 0 9 -42 69 -67
96 -7 7 -13 9 -13 3z m-155 -531 c6 -19 -9 -60 -23 -60 -8 0 -13 49 -7 68 7
18 23 14 30 -8z m171 -48 c18 -12 25 -59 15 -104 -7 -32 -22 -54 -56 -85 -52
-47 -95 -63 -172 -63 -48 0 -56 3 -93 40 -42 42 -47 58 -30 91 8 15 21 19 60
19 62 0 146 31 202 75 45 35 56 40 74 27z"/>
<path d="M16716 18702 c-9 -26 3 -71 26 -102 17 -23 17 -32 7 -79 -12 -57 -5
-76 27 -69 22 4 24 37 6 108 -6 25 -15 68 -19 95 -4 28 -12 48 -17 47 -5 -2
-12 2 -16 8 -6 9 -10 6 -14 -8z"/>
<path d="M15702 18638 c-6 -7 -15 -42 -22 -78 -6 -36 -20 -85 -31 -109 -11
-25 -19 -65 -18 -95 l0 -51 30 85 c53 149 60 174 57 217 -2 24 -4 43 -4 43 -1
0 -6 -6 -12 -12z"/>
<path d="M16860 18569 c0 -25 50 -192 62 -206 6 -7 17 -13 25 -13 26 0 12 101
-20 147 -53 75 -67 89 -67 72z"/>
<path d="M8708 18273 c-20 -21 -47 -56 -61 -78 -13 -22 -54 -69 -91 -105 -36
-36 -82 -90 -101 -120 -18 -30 -57 -77 -84 -105 -28 -27 -51 -55 -51 -62 0
-13 20 -20 190 -57 63 -15 146 -26 183 -26 l69 0 81 84 c71 73 90 86 137 100
143 41 319 46 490 15 183 -33 274 -69 400 -154 l84 -57 61 7 c33 4 114 7 180
7 66 -1 133 2 149 5 l28 6 -46 28 c-46 29 -99 105 -112 161 -5 27 -7 28 -72
27 -49 -1 -60 -3 -42 -9 l25 -8 -27 -1 c-17 -1 -28 4 -28 12 0 12 -91 56 -150
73 -14 4 -47 17 -75 30 -27 13 -68 30 -90 38 -22 8 -80 31 -128 51 -49 20
-110 40 -137 45 -26 5 -65 18 -87 30 -60 31 -211 70 -273 70 -30 0 -68 7 -84
15 -21 11 -63 15 -165 15 l-137 0 -36 -37z"/>
<path d="M10453 18236 c-45 -20 -173 -204 -173 -249 0 -32 45 -118 77 -150 16
-14 44 -33 65 -41 33 -14 38 -14 57 2 49 39 101 287 81 378 -9 38 -40 74 -64
74 -6 -1 -25 -7 -43 -14z"/>
<path d="M15872 18148 c-7 -7 -12 -18 -12 -25 0 -7 -6 -13 -12 -13 -13 -1 -77
-77 -208 -248 -39 -51 -100 -115 -135 -143 -36 -28 -74 -64 -86 -80 l-21 -30
49 27 c26 15 65 38 86 51 22 14 41 23 43 20 7 -6 -35 -178 -54 -222 -35 -83
-144 -261 -180 -295 -21 -19 -64 -59 -96 -87 -33 -29 -53 -53 -45 -54 8 -1 29
-2 47 -4 28 -2 38 4 73 46 22 26 50 67 63 91 13 24 44 81 69 128 43 79 154
330 198 446 11 28 42 83 69 123 28 40 50 76 50 81 0 5 4 10 8 12 15 6 120 188
109 188 -2 0 -8 -5 -15 -12z"/>
<path d="M15601 18045 c-52 -68 -62 -92 -35 -77 30 16 62 54 79 95 22 53 4 46
-44 -18z"/>
<path d="M7571 17913 c-19 -8 -62 -38 -95 -67 -77 -67 -236 -160 -408 -237
-73 -33 -144 -71 -158 -84 -34 -31 -220 -118 -333 -154 -374 -120 -456 -144
-562 -165 -66 -14 -167 -32 -225 -41 -58 -9 -124 -21 -146 -26 -73 -16 -312
-29 -588 -32 -169 -3 -271 -8 -273 -14 -5 -14 15 -28 72 -51 28 -11 100 -41
160 -67 61 -26 155 -62 210 -80 104 -34 203 -54 175 -35 -9 6 -11 10 -3 10 7
0 21 -10 32 -21 27 -29 326 -122 671 -209 303 -76 318 -79 570 -114 260 -37
352 -43 369 -22 8 9 11 19 8 22 -3 3 -70 10 -149 15 -206 12 -308 26 -527 70
-229 46 -530 125 -551 145 -12 12 -11 14 8 14 24 0 31 -1 277 -61 94 -22 188
-47 210 -55 22 -8 78 -18 125 -23 369 -42 566 -61 614 -61 32 0 52 20 152 154
l73 98 -47 24 c-26 12 -65 31 -86 40 -54 24 -35 27 59 9 44 -9 89 -17 99 -18
21 -2 71 56 129 150 31 49 152 227 182 267 42 56 27 -60 -18 -133 -18 -29 -60
-91 -95 -137 -55 -76 -102 -153 -102 -169 0 -16 116 116 142 162 17 29 38 58
47 63 47 25 430 533 431 571 0 9 -11 24 -25 33 -31 20 -34 51 -5 43 30 -8 24
-1 -19 21 -28 15 -50 19 -75 15 -22 -3 -36 -2 -36 5 0 5 -11 13 -24 16 -13 3
-63 37 -112 76 -48 38 -95 70 -103 69 -9 0 -31 -7 -50 -16z m-2191 -1027 c0
-11 -19 -15 -25 -6 -3 5 1 10 9 10 9 0 16 -2 16 -4z m314 -76 c23 -5 57 -16
76 -24 46 -20 12 -21 -56 -2 -27 8 -62 17 -77 20 -16 4 -25 11 -21 17 3 6 13
8 22 4 8 -3 34 -10 56 -15z"/>
<path d="M9130 17781 c-89 -19 -166 -74 -247 -178 l-21 -28 -154 0 c-171 1
-246 12 -397 60 -70 23 -110 31 -120 25 -14 -7 -13 -10 4 -15 20 -7 67 -28
200 -91 39 -18 79 -35 89 -39 14 -4 16 -9 8 -17 -8 -8 -21 -7 -49 4 -98 41
-273 99 -282 94 -6 -4 -38 -48 -72 -98 -34 -51 -75 -110 -91 -132 -29 -40 -26
-55 11 -56 8 0 31 -11 50 -24 25 -16 67 -29 135 -40 115 -20 141 -30 131 -54
-4 -9 -12 -43 -18 -74 -7 -32 -15 -58 -19 -58 -4 0 -32 16 -62 35 -53 34 -97
53 -226 101 -89 33 -104 31 -131 -13 -13 -20 -42 -59 -66 -85 -24 -27 -43 -53
-43 -58 0 -5 -25 -37 -55 -71 -30 -34 -55 -67 -55 -75 0 -7 -16 -28 -36 -47
-38 -36 -39 -57 -1 -57 35 0 309 -76 482 -134 230 -77 293 -96 314 -96 28 0
65 -35 66 -61 0 -16 7 -25 20 -27 25 -3 59 40 70 88 4 19 22 67 41 105 47 100
127 178 240 238 98 50 124 56 145 31 14 -18 173 -132 250 -180 56 -36 210 -94
337 -126 230 -60 437 -5 502 133 14 29 39 80 56 113 17 34 37 79 44 101 7 22
26 66 41 97 16 32 29 69 29 83 0 22 -3 25 -24 19 -20 -5 -38 5 -89 48 -35 29
-72 58 -82 64 -14 8 -21 27 -26 75 -4 35 -10 73 -13 84 -6 16 2 28 36 55 42
34 45 35 149 38 92 3 112 1 147 -17 l41 -21 17 24 c8 14 13 30 9 36 -8 13
-142 13 -241 -1 -52 -7 -94 -20 -129 -40 -34 -19 -59 -27 -71 -23 -11 4 -56
34 -101 66 -44 32 -89 58 -98 58 -9 0 -32 16 -52 35 -40 38 -60 44 -70 18 -4
-10 2 -23 15 -34 50 -40 15 -35 -83 13 -73 35 -209 58 -350 58 -99 0 -140 9
-115 25 12 7 111 8 214 2 50 -3 57 16 12 37 -36 17 -148 20 -216 7z m-138
-178 c-4 -55 4 -90 50 -225 34 -99 68 -147 141 -200 36 -26 34 -14 -7 55 -19
31 -30 57 -25 57 4 0 44 -37 88 -83 72 -75 91 -88 213 -149 73 -37 153 -76
178 -87 25 -11 58 -31 73 -43 26 -21 38 -23 140 -21 122 1 211 24 254 65 13
12 23 16 23 10 0 -19 -19 -63 -34 -78 -43 -43 -241 -91 -326 -79 -64 8 -293
81 -370 117 -105 49 -191 111 -281 205 -57 60 -94 108 -113 148 -15 33 -36 78
-47 101 -13 28 -19 63 -19 111 0 61 4 75 28 106 15 20 29 36 32 37 3 0 4 -21
2 -47z m738 7 c0 -5 7 -10 15 -10 8 0 15 -3 15 -7 0 -5 14 -16 30 -25 31 -18
40 -38 17 -38 -20 0 -97 60 -97 76 0 8 5 14 10 14 6 0 10 -4 10 -10z m-53
-167 c64 -45 76 -55 122 -108 85 -98 135 -240 98 -277 -9 -9 -13 -18 -10 -22
4 -3 2 -6 -4 -6 -6 0 -18 39 -27 88 -34 176 -33 173 -211 326 -40 34 -18 33
32 -1z m301 -26 c4 -21 -24 -13 -32 9 -4 11 -1 14 11 12 10 -2 19 -11 21 -21z
m-436 -26 c4 -1 21 -16 38 -33 28 -29 31 -38 26 -76 -7 -49 -30 -89 -57 -97
-25 -8 -88 12 -116 38 -17 15 -23 32 -23 63 0 78 33 116 95 109 17 -2 33 -4
37 -4z m-1156 -269 c-29 -57 -46 -73 -46 -43 0 47 45 120 63 102 5 -5 -2 -29
-17 -59z m242 45 c8 -9 2 -24 -25 -57 -56 -70 -119 -171 -132 -212 -7 -21 -16
-40 -21 -43 -11 -6 -105 39 -115 55 -7 12 45 109 83 155 62 75 101 98 193 114
4 1 11 -5 17 -12z m-448 -84 c108 -49 147 -98 105 -133 -19 -16 -59 -5 -190
49 -49 21 -103 42 -120 47 -43 13 -43 38 -1 58 19 9 38 21 41 26 7 11 89 -12
165 -47z m-365 -83 c4 -6 -7 -10 -25 -10 -18 0 -29 4 -25 10 3 6 15 10 25 10
10 0 22 -4 25 -10z m-45 -156 c0 -8 -19 -16 -46 -20 -35 -5 -49 -3 -62 9 -14
15 -14 17 4 22 10 4 28 10 39 14 24 10 65 -7 65 -25z m637 -176 c-3 -8 -6 -5
-6 6 -1 11 2 17 5 13 3 -3 4 -12 1 -19z m20 -20 c-3 -7 -5 -2 -5 12 0 14 2 19
5 13 2 -7 2 -19 0 -25z"/>
<path d="M6561 17625 c-1 -17 -6 -36 -11 -41 -18 -18 -19 -53 -3 -69 14 -15
14 -17 -3 -31 -11 -8 -36 -22 -57 -31 -21 -8 -36 -18 -33 -20 6 -6 215 67 221
78 3 4 -19 31 -48 61 -30 29 -57 60 -60 68 -3 8 -6 1 -6 -15z"/>
<path d="M13136 17565 c-9 -26 -7 -32 5 -12 6 10 9 21 6 23 -2 3 -7 -2 -11
-11z"/>
<path d="M10553 17549 c-7 -7 -13 -27 -13 -45 0 -26 5 -33 25 -38 14 -4 30 -4
35 -1 5 3 19 1 31 -6 14 -7 24 -7 28 -1 14 22 52 23 86 2 19 -12 35 -25 35
-29 0 -4 10 -12 23 -18 23 -11 87 -123 87 -154 0 -27 -99 -25 -118 3 -11 16
-21 18 -47 14 -29 -6 -40 -1 -82 34 -26 23 -64 59 -83 82 -35 39 -36 39 -53
20 -24 -26 -13 -68 22 -87 55 -28 143 -147 124 -166 -11 -11 -116 -14 -132 -5
-7 4 -17 3 -24 -2 -7 -6 -31 -12 -54 -15 -43 -4 -73 -21 -73 -41 0 -6 -9 -22
-20 -36 -30 -38 -25 -56 26 -86 41 -24 52 -26 109 -21 35 3 92 13 127 21 34 9
117 27 183 41 213 45 466 120 547 161 36 18 68 61 68 91 0 31 -54 135 -90 173
-35 37 -90 43 -290 30 -221 -15 -217 -15 -262 17 -66 47 -104 63 -155 69 -32
4 -52 2 -60 -7z m473 -110 c48 -23 59 -44 49 -92 -17 -76 -64 -116 -80 -67 -4
11 -10 18 -15 15 -5 -3 -7 -12 -4 -20 8 -19 -22 -31 -40 -16 -31 26 -22 163
11 189 22 16 30 15 79 -9z m140 7 c15 -12 17 -17 7 -27 -7 -7 -13 -25 -13 -40
0 -36 -24 -56 -45 -39 -12 10 -14 24 -9 59 4 25 8 49 11 54 7 11 27 8 49 -7z
m172 -155 c-3 -22 -9 -26 -40 -29 -47 -4 -52 19 -11 54 32 28 56 16 51 -25z
m-153 -21 c4 -6 11 -8 16 -5 16 11 9 -7 -8 -21 -26 -19 -82 -18 -90 2 -3 9 0
20 8 25 19 12 66 11 74 -1z"/>
<path d="M10351 17427 c-7 -19 -15 -23 -38 -20 -21 3 -36 -4 -60 -26 -36 -32
-42 -61 -18 -81 12 -10 15 -9 15 7 0 32 38 73 67 73 23 0 25 -3 19 -32 -9 -47
8 -22 28 39 19 61 19 63 6 63 -6 0 -14 -11 -19 -23z"/>
<path d="M12940 17325 c-14 -16 -10 -18 14 -9 9 3 16 10 16 15 0 14 -16 11
-30 -6z"/>
<path d="M13135 17309 c-46 -35 -53 -47 -32 -55 23 -8 52 11 76 51 25 43 11
45 -44 4z"/>
<path d="M14570 17285 c0 -4 7 -19 15 -34 14 -28 45 -49 45 -32 0 5 14 14 30
20 35 12 36 14 14 35 -14 15 -104 24 -104 11z"/>
<path d="M15170 17030 c0 -5 7 -7 15 -4 8 4 15 8 15 10 0 2 -7 4 -15 4 -8 0
-15 -4 -15 -10z"/>
<path d="M15110 16990 c-13 -8 -13 -10 2 -10 9 0 20 5 23 10 8 13 -5 13 -25 0z"/>
<path d="M18470 16800 c-25 -5 -67 -9 -95 -9 -27 -1 -72 -8 -100 -16 -27 -9
-97 -24 -155 -35 -73 -13 -145 -35 -235 -73 -71 -29 -168 -66 -215 -82 -90
-30 -225 -93 -275 -130 -16 -12 -64 -36 -105 -54 -82 -36 -174 -101 -193 -137
-13 -24 -165 -192 -239 -264 -27 -26 -48 -53 -48 -62 0 -9 12 -26 28 -38 26
-21 27 -26 35 -148 4 -70 9 -140 9 -157 3 -54 -21 -198 -37 -221 -8 -12 -17
-42 -21 -66 -3 -24 -17 -59 -29 -79 -38 -60 -46 -159 -12 -159 12 0 98 56 173
114 22 17 71 53 109 82 39 28 167 123 285 211 118 87 236 174 263 192 47 32
62 66 33 77 -8 3 -36 -6 -62 -19 -45 -22 -116 -45 -104 -34 14 14 130 96 151
107 50 27 138 98 235 190 55 53 154 134 219 181 65 46 146 109 180 139 34 30
102 83 152 118 144 100 211 166 245 241 33 74 31 104 -9 119 -40 16 -131 22
-183 12z"/>
<path d="M7480 16689 c-59 -65 -49 -92 27 -69 21 7 67 15 103 19 l65 7 -64 32
c-35 17 -69 37 -77 43 -11 9 -22 3 -54 -32z"/>
<path d="M7374 16505 c-4 -9 -5 -18 -2 -20 2 -3 195 -7 429 -11 233 -4 440 -7
459 -8 90 -1 180 5 180 12 0 24 -98 30 -540 31 -256 0 -477 3 -493 7 -20 4
-29 1 -33 -11z"/>
<path d="M12730 15705 c-58 -13 -118 -28 -135 -35 -32 -13 -176 -32 -265 -35
-30 -1 -203 -6 -385 -10 l-330 -8 -27 -28 c-23 -22 -28 -36 -28 -76 0 -48 27
-123 56 -154 8 -9 30 -50 47 -90 67 -152 158 -302 194 -318 44 -20 100 12 198
112 96 99 144 129 300 187 44 16 110 51 146 77 37 27 99 71 138 98 40 28 96
69 125 93 29 24 79 58 112 76 32 18 65 44 73 58 13 23 13 29 -2 52 -15 22 -24
26 -65 25 -26 0 -94 -11 -152 -24z"/>
<path d="M15895 15622 c-36 -57 -41 -67 -27 -58 13 8 65 96 60 101 -2 2 -17
-17 -33 -43z"/>
<path d="M5940 15388 c-7 -24 -28 -67 -47 -96 -20 -29 -33 -55 -31 -58 6 -5
148 129 148 139 0 6 -48 57 -54 57 -2 0 -9 -19 -16 -42z"/>
<path d="M16431 14666 c-18 -19 -39 -32 -46 -30 -21 8 -73 -44 -147 -148 -76
-106 -90 -118 -139 -118 -27 0 -53 -21 -193 -157 -88 -87 -165 -164 -169 -170
-13 -20 21 -15 88 13 33 14 87 35 120 48 69 27 206 95 250 125 17 12 42 21 57
21 25 0 27 -2 18 -26 -15 -37 -12 -54 8 -54 29 0 82 38 82 59 0 11 13 29 29
40 17 13 32 35 37 54 3 17 20 55 35 83 22 39 30 68 33 120 6 90 -3 174 -18
174 -7 0 -27 -15 -45 -34z m-95 -181 c-16 -25 -36 -33 -36 -16 0 4 10 21 22
36 26 33 38 16 14 -20z m-73 -111 c9 -10 -4 -34 -19 -34 -16 0 -16 2 -8 24 6
17 16 20 27 10z"/>
<path d="M15199 14292 c-13 -11 -35 -22 -49 -25 -21 -5 -27 -16 -37 -59 -20
-90 -27 -178 -14 -178 7 0 19 17 27 38 59 147 79 184 111 203 18 11 33 25 33
30 0 16 -46 10 -71 -9z"/>
<path d="M16264 14090 c-32 -12 -44 -34 -56 -101 -6 -35 -16 -71 -22 -80 -6
-9 -93 -100 -192 -202 l-181 -185 -6 -171 c-6 -170 -3 -206 14 -195 13 8 37
67 41 101 2 15 13 37 25 48 13 11 24 29 26 40 5 34 18 47 42 41 31 -8 51 18
59 77 5 32 13 50 24 54 9 4 41 31 70 61 39 39 51 57 43 65 -16 16 -14 30 3 24
18 -7 22 6 31 98 6 57 13 76 37 105 16 19 38 46 49 58 10 13 22 36 25 50 4 15
9 32 13 37 3 6 6 24 8 41 2 35 -17 47 -53 34z m-114 -402 c0 -4 -7 -8 -16 -8
-8 0 -13 4 -10 9 4 5 1 11 -6 13 -7 3 -8 9 -3 18 6 10 11 9 22 -5 7 -11 13
-22 13 -27z m-90 -79 c0 -16 -5 -18 -25 -13 -17 4 -25 2 -25 -7 0 -11 -3 -11
-10 1 -5 8 -10 20 -10 25 0 6 4 4 9 -3 7 -11 9 -11 13 0 9 22 48 20 48 -3z
m-89 -47 c19 -19 19 -19 -1 -45 -21 -27 -44 -27 -54 -1 -3 8 -2 13 3 10 5 -3
11 8 15 24 7 35 10 36 37 12z"/>
<path d="M18313 13579 c-6 -14 -14 -47 -18 -72 -6 -39 -5 -47 8 -47 19 0 30
48 25 105 -4 39 -4 40 -15 14z"/>
<path d="M17956 13279 c-93 -38 -185 -81 -205 -96 -71 -54 -307 -260 -338
-297 -41 -46 -44 -76 -7 -76 15 0 42 -10 62 -22 33 -20 36 -21 81 -5 73 26
172 47 225 47 52 0 155 24 195 44 20 11 37 51 98 221 68 193 84 257 66 254 -5
-1 -84 -32 -177 -70z"/>
<path d="M17175 12710 c-8 -13 5 -13 25 0 13 8 13 10 -2 10 -9 0 -20 -4 -23
-10z"/>
<path d="M17120 12693 c-16 -6 -91 -56 -125 -83 -11 -9 -27 -16 -35 -15 -22 1
-38 -17 -32 -35 5 -13 3 -13 -11 -1 -14 11 -21 11 -43 -4 -16 -10 -23 -22 -20
-32 3 -8 6 -17 6 -19 0 -2 7 -4 15 -4 8 0 15 3 15 8 0 4 16 16 36 27 20 10 53
36 74 56 21 20 64 51 96 69 33 17 61 34 63 36 6 6 -21 3 -39 -3z"/>
<path d="M17775 12612 c-44 -16 -98 -39 -120 -51 -46 -26 -39 -24 68 18 43 17
84 31 91 31 11 0 57 29 46 30 -3 0 -41 -13 -85 -28z"/>
<path d="M16807 12462 c-10 -10 -17 -24 -17 -30 0 -21 18 -13 40 18 16 22 18
30 7 30 -8 0 -21 -8 -30 -18z"/>
<path d="M17418 12420 c-25 -17 -52 -38 -59 -46 -7 -9 15 3 49 26 54 35 71 50
59 50 -2 0 -24 -14 -49 -30z"/>
<path d="M15313 12408 c-106 -52 -291 -223 -561 -519 -51 -57 -62 -75 -72
-125 -6 -33 -16 -70 -21 -83 l-10 -24 -127 7 -127 6 -121 -59 c-117 -57 -121
-60 -143 -107 -13 -27 -36 -66 -52 -86 -16 -21 -41 -61 -55 -89 -37 -73 -104
-271 -97 -283 8 -13 24 -90 26 -129 2 -26 -5 -33 -73 -70 -134 -73 -338 -139
-503 -162 -62 -9 -180 -16 -265 -16 -170 -1 -172 -2 -172 -73 0 -23 -5 -36
-13 -36 -7 0 -25 -13 -40 -28 -21 -21 -27 -38 -27 -70 0 -23 -4 -42 -9 -42
-14 0 -61 -52 -61 -67 0 -11 12 -13 53 -11 50 3 52 4 55 35 2 23 7 30 18 26
23 -9 64 24 64 53 0 16 4 23 11 18 16 -10 6 -387 -15 -574 -18 -160 -118 -688
-148 -789 -11 -36 -30 -87 -43 -115 -12 -28 -32 -97 -44 -154 -24 -114 -205
-593 -241 -637 -4 -5 -25 -41 -45 -80 -21 -38 -57 -95 -79 -125 -23 -30 -50
-68 -60 -85 -10 -16 -59 -84 -108 -150 -48 -66 -111 -155 -138 -197 -40 -64
-54 -78 -75 -78 -20 0 -25 -5 -25 -24 0 -29 21 -38 88 -38 92 1 322 56 447
107 44 18 145 59 225 90 226 90 565 260 642 322 190 154 342 286 398 346 25
27 76 78 114 115 92 90 289 304 351 382 28 35 86 106 130 158 131 155 169 202
195 242 40 60 139 188 151 196 14 8 3 70 -21 109 -58 96 -109 315 -130 558
-14 153 -9 210 24 311 24 74 40 89 99 92 71 4 106 15 159 51 74 49 131 106
194 191 30 40 61 75 69 78 55 21 95 333 53 409 -10 17 -27 48 -38 70 -11 22
-26 48 -33 58 -10 16 -8 21 11 35 93 69 128 102 167 163 43 67 164 307 180
358 4 13 20 44 36 69 33 52 62 125 90 227 36 126 36 122 -9 163 -42 39 -159
112 -177 111 -5 0 -38 -14 -72 -31z m136 -80 c51 -41 57 -52 45 -82 -10 -26
-24 -18 -24 13 0 29 -1 29 -72 36 l-72 7 -33 -37 c-18 -21 -33 -44 -33 -52 0
-7 -10 -13 -23 -13 -12 0 -32 -7 -45 -15 -22 -16 -92 -12 -92 5 0 15 155 141
180 146 14 3 39 11 55 19 46 21 58 18 114 -27z m-184 -198 c3 -5 20 -10 36
-10 18 0 39 -9 54 -25 25 -24 33 -55 16 -55 -6 0 -11 -19 -13 -41 -4 -59 -23
-68 -84 -40 -114 53 -164 84 -164 103 0 17 53 53 93 64 57 15 55 15 62 4z
m-167 -210 c28 -28 52 -56 52 -62 0 -6 7 -19 15 -28 8 -9 15 -30 17 -48 1 -20
9 -34 20 -38 29 -9 21 -47 -20 -92 -21 -23 -41 -42 -44 -42 -3 0 -26 28 -52
63 -107 143 -137 209 -101 224 9 3 22 21 30 39 8 19 18 34 22 34 4 0 32 -23
61 -50z m-233 -34 c11 -8 31 -35 45 -60 l24 -45 -22 -46 c-25 -52 -26 -57 -11
-125 10 -45 15 -54 45 -66 30 -13 38 -12 65 1 36 19 73 16 77 -5 1 -9 -12 -35
-30 -58 -36 -47 -32 -46 -133 -24 -77 17 -105 34 -105 64 0 15 -4 28 -8 28 -5
0 -25 16 -45 35 l-36 35 6 97 c6 96 7 98 46 140 43 47 53 50 82 29z m423 -26
c1 -8 -7 -31 -19 -50 l-21 -34 -24 29 c-13 17 -24 38 -24 47 0 28 83 36 88 8z
m-1110 -489 c-2 -45 2 -74 11 -84 7 -9 19 -36 26 -61 40 -134 187 -293 341
-370 104 -52 165 -65 300 -66 64 0 86 4 105 18 13 11 36 22 51 26 18 4 38 22
55 49 36 55 43 27 13 -46 -34 -80 -148 -155 -280 -183 -37 -7 -78 -18 -91 -23
-15 -5 -34 -5 -49 1 -14 6 -60 20 -102 33 -126 38 -358 207 -358 260 0 12 -7
28 -15 35 -8 7 -15 17 -15 22 0 6 -9 23 -21 40 -12 16 -30 57 -40 91 -32 102
-11 269 39 318 26 25 32 14 30 -60z m483 -130 c3 -1 18 -28 34 -60 18 -39 26
-67 21 -82 -7 -28 -96 -99 -122 -99 -25 0 -110 93 -117 127 -7 34 20 94 49
108 16 8 99 12 135 6z m-1128 -617 c43 -8 50 -34 15 -58 -32 -23 -175 -22
-239 1 -27 10 -49 20 -49 23 0 6 115 27 180 33 19 2 40 4 45 5 6 1 27 -1 48
-4z m901 -46 c-4 -7 -15 -22 -24 -33 -9 -11 -32 -47 -50 -80 -30 -54 -34 -71
-39 -165 l-6 -105 -35 0 -35 0 -8 58 c-8 54 -6 63 24 120 38 74 68 118 123
175 38 40 65 56 50 30z m-459 -218 c-3 -5 -22 -10 -41 -10 -46 0 -36 15 11 18
23 2 34 -1 30 -8z m-24 -277 c14 -49 33 -105 43 -126 l16 -37 -27 -11 c-15 -6
-59 -17 -98 -25 -38 -8 -100 -30 -137 -49 -37 -19 -71 -35 -76 -35 -4 0 -4 35
0 78 9 78 5 205 -7 254 l-7 27 78 -3 c43 -1 92 1 109 5 77 18 79 17 106 -78z
m-842 -100 c19 -18 37 -33 41 -33 4 0 18 -9 31 -21 18 -15 32 -19 56 -14 40 7
47 -11 38 -103 -18 -186 -66 -415 -125 -592 -25 -75 -123 -289 -152 -333 -125
-188 -316 -447 -329 -447 -23 0 -11 36 97 314 55 139 168 634 199 871 4 28 22
127 41 221 19 94 34 174 34 177 0 13 37 -8 69 -40z m1311 -273 c13 -8 13 -10
-2 -10 -10 0 -33 -14 -53 -31 -30 -27 -42 -31 -90 -30 -30 0 -74 -7 -97 -15
-24 -9 -78 -24 -121 -35 -83 -20 -114 -34 -191 -83 -27 -17 -50 -30 -53 -28
-2 2 -15 -4 -29 -13 -45 -29 -47 -10 -2 21 50 36 270 148 373 189 97 40 231
57 265 35z m-700 -275 c0 -2 -10 -10 -22 -16 -21 -11 -22 -11 -9 4 13 16 31
23 31 12z m600 -4 c0 -8 -60 -41 -74 -41 -16 0 -3 28 17 38 27 13 57 15 57 3z
m350 -11 c0 -25 -102 -157 -248 -323 -51 -58 -135 -157 -185 -220 -150 -186
-420 -480 -520 -566 -23 -20 -96 -83 -162 -141 -158 -138 -173 -149 -333 -238
-168 -93 -251 -135 -319 -162 -70 -26 -68 -16 2 15 30 14 74 37 97 52 24 15
63 38 88 51 67 36 157 93 203 129 117 92 199 152 263 195 62 41 333 311 425
422 13 17 40 48 60 70 54 62 121 154 161 221 32 54 98 195 98 209 0 10 -64 6
-115 -8 -65 -17 -384 -119 -505 -162 -124 -43 -140 -47 -140 -37 0 14 129 95
174 108 22 8 79 34 126 60 47 26 137 68 200 95 63 26 192 81 285 120 260 111
345 138 345 110z m-660 -150 c0 -5 -5 -10 -11 -10 -5 0 -7 5 -4 10 3 6 8 10
11 10 2 0 4 -4 4 -10z"/>
<path d="M15089 11807 c15 -18 51 -23 51 -7 0 6 -6 10 -14 10 -8 0 -23 3 -33
7 -16 6 -16 5 -4 -10z"/>
<path d="M17089 12203 c-2 -4 -16 -15 -30 -23 -27 -15 -108 -81 -163 -132 -25
-25 -27 -28 -9 -28 21 0 163 100 202 144 18 19 22 29 14 37 -6 6 -12 7 -14 2z"/>
<path d="M17876 12028 c-9 -13 -20 -48 -26 -78 -6 -30 -17 -65 -26 -78 -13
-20 -21 -23 -49 -18 -36 7 -54 -9 -70 -62 -4 -13 -28 -55 -54 -95 -57 -87 -98
-164 -146 -277 -35 -80 -37 -91 -35 -180 1 -52 4 -98 7 -103 11 -18 -20 -37
-52 -31 -49 9 -103 -20 -168 -88 -65 -70 -72 -87 -63 -166 7 -60 36 -119 94
-191 40 -49 135 -100 237 -126 77 -20 96 -19 218 6 108 22 160 44 191 78 11
12 24 21 30 21 20 1 68 81 73 123 7 52 21 80 35 71 7 -4 8 -38 5 -96 -7 -110
-28 -151 -119 -229 -113 -98 -144 -115 -244 -127 -107 -14 -223 -3 -308 28
-94 34 -174 78 -187 102 -7 13 -30 46 -51 74 -43 58 -54 87 -68 188 -10 65 -9
71 16 115 15 25 38 59 51 74 47 57 14 66 -46 12 -30 -27 -43 -51 -59 -103 -49
-161 -57 -340 -19 -422 12 -28 29 -50 37 -50 19 0 40 -19 40 -37 0 -20 -82
-122 -162 -200 -92 -90 -254 -179 -397 -217 -66 -18 -70 -33 -33 -108 17 -34
43 -103 57 -153 15 -49 40 -135 57 -190 16 -55 38 -145 48 -200 10 -55 25
-118 33 -140 27 -72 38 -195 43 -489 7 -420 -18 -593 -125 -876 -16 -41 -37
-108 -47 -149 -10 -41 -28 -86 -41 -101 -29 -35 -30 -60 -3 -60 49 0 293 151
348 215 15 17 47 43 72 57 25 14 73 55 108 90 34 34 83 83 108 108 25 25 58
61 72 80 14 19 58 69 97 110 40 41 80 89 91 105 10 17 34 49 52 72 74 93 162
249 162 290 0 28 42 114 85 175 8 13 15 31 15 41 0 11 15 51 34 91 83 174 137
295 155 351 11 33 35 105 54 160 54 157 54 144 -6 221 -28 37 -64 79 -78 93
-70 71 -137 225 -163 378 l-14 76 26 24 c14 13 37 26 51 29 77 18 148 88 198
194 112 238 126 312 74 391 -16 24 -32 62 -36 84 -11 64 -57 135 -87 135 -17
0 -7 55 17 97 35 58 62 169 86 343 33 252 42 376 30 411 -6 18 -11 44 -11 58
0 41 -13 51 -81 66 -35 7 -76 16 -91 20 -21 5 -29 2 -42 -17z m47 -276 c20
-13 37 -31 37 -39 0 -14 -11 -15 -74 -10 -40 4 -80 9 -90 13 -20 8 -21 30 -1
38 8 3 15 14 15 25 0 17 3 18 38 7 20 -6 54 -21 75 -34z m-206 -78 c3 -8 1
-20 -4 -25 -14 -14 -43 0 -43 22 0 24 38 26 47 3z m236 -10 c9 -3 17 -12 17
-19 0 -12 -34 -88 -47 -104 -7 -9 -99 -18 -113 -11 -10 6 -22 0 -37 -16 -24
-26 -61 -32 -69 -10 -3 7 6 39 19 71 22 52 29 59 78 80 51 22 95 25 152 9z
m-13 -212 c0 -36 -21 -138 -35 -167 -7 -16 -21 -52 -31 -79 -9 -27 -25 -57
-35 -67 -28 -28 -104 -25 -161 5 -25 13 -58 27 -75 30 -33 8 -46 26 -68 100
-17 60 -9 78 43 99 48 19 112 32 112 22 0 -4 -16 -25 -35 -46 -48 -54 -48 -96
0 -133 51 -39 93 -43 129 -11 26 24 27 27 12 44 -31 34 -16 52 25 30 27 -14
59 -2 59 21 0 23 -32 45 -77 55 -38 8 -47 25 -26 55 25 35 74 60 121 60 34 0
42 -3 42 -18z m-184 -149 c-11 -11 -19 6 -11 24 8 17 8 17 12 0 3 -10 2 -21
-1 -24z m-126 -456 c60 -47 66 -113 15 -164 -33 -33 -39 -35 -82 -29 -56 7
-80 27 -89 72 -14 77 28 134 98 134 24 0 50 -6 58 -13z m-487 -654 c7 -35 -30
-95 -76 -124 -122 -75 -300 -141 -340 -126 -30 12 -18 24 65 68 45 23 119 69
165 101 45 32 85 58 90 58 4 0 22 11 38 25 39 32 51 31 58 -2z m277 -145 c1
-13 18 -59 40 -103 21 -44 36 -82 34 -84 -2 -3 -26 20 -54 50 -35 39 -49 62
-49 84 -1 39 9 75 20 75 5 0 9 -10 9 -22z m-117 -29 c-5 -5 -43 -25 -84 -44
l-74 -35 35 31 c44 39 124 80 129 67 2 -5 -1 -14 -6 -19z m23 -206 c15 -21 42
-51 59 -67 l30 -29 -30 -21 c-16 -11 -62 -51 -101 -88 -39 -38 -77 -68 -86
-68 -11 0 -17 15 -21 60 -3 37 -15 80 -32 111 -28 54 -27 79 2 79 10 0 43 13
73 29 30 16 60 30 66 30 7 1 24 -16 40 -36z m602 -215 c-6 -18 -25 -20 -31 -3
-5 10 0 15 14 15 12 0 19 -5 17 -12z m-901 -30 c-3 -8 -6 -5 -6 6 -1 11 2 17
5 13 3 -3 4 -12 1 -19z m957 -27 c3 -5 -7 -34 -23 -64 -16 -31 -35 -82 -41
-114 -13 -63 -59 -198 -96 -280 -13 -29 -27 -65 -30 -80 -4 -16 -24 -62 -44
-103 -21 -41 -50 -106 -65 -145 -16 -38 -40 -88 -55 -110 -14 -22 -55 -94 -89
-160 -62 -118 -80 -144 -202 -295 -106 -132 -329 -359 -411 -418 -113 -81
-139 -97 -133 -80 6 16 70 70 125 107 37 25 153 143 198 201 15 19 56 69 92
110 36 41 93 110 125 153 33 42 79 101 102 130 71 88 198 405 263 657 12 47
26 95 30 107 11 26 4 33 -30 33 -19 0 -55 -24 -126 -86 -54 -47 -110 -93 -124
-102 -14 -9 -41 -28 -60 -42 -61 -47 -90 -63 -90 -51 0 18 79 100 114 118 17
8 69 57 115 107 106 115 422 416 438 416 6 0 14 -4 17 -9z m-864 -72 c0 -5 -9
-9 -20 -9 -19 0 -27 20 -13 33 7 8 33 -11 33 -24z m-250 -866 c0 -17 -4 -35
-10 -38 -6 -4 -10 14 -10 47 0 38 3 49 10 38 5 -8 10 -29 10 -47z"/>
<path d="M18675 12040 c-11 -5 -56 -9 -100 -9 -66 -1 -192 -16 -302 -37 -22
-4 -23 -8 -23 -117 0 -183 -36 -499 -79 -697 -11 -50 -16 -93 -11 -105 11 -28
37 -48 54 -42 21 8 117 148 167 242 23 44 52 94 65 110 25 35 64 110 64 125 0
15 -19 12 -37 -6 -12 -12 -18 -13 -24 -3 -4 7 -6 17 -4 23 17 51 23 227 12
351 l-8 90 53 17 c80 26 142 36 167 27 23 -9 159 9 176 23 5 4 -18 8 -50 8
-33 0 -69 2 -80 5 -11 2 -29 0 -40 -5z"/>
<path d="M16794 11976 c-62 -38 -227 -170 -274 -221 -42 -44 -143 -126 -216
-175 -29 -19 -119 -98 -201 -176 -81 -78 -175 -165 -208 -194 -107 -96 -124
-113 -129 -136 -3 -12 -21 -32 -40 -44 -34 -21 -55 -55 -41 -68 4 -4 41 30 83
76 87 95 425 412 488 457 56 40 194 158 328 281 108 98 226 197 256 214 8 5
13 10 10 13 -3 2 -28 -10 -56 -27z"/>
<path d="M17369 11794 c-23 -25 -23 -26 -2 -15 23 12 38 29 31 37 -3 2 -15 -8
-29 -22z"/>
<path d="M16839 11489 c-46 -50 -124 -133 -172 -185 -88 -95 -127 -148 -127
-172 0 -7 -14 -25 -30 -39 -17 -14 -38 -39 -47 -57 -8 -17 -54 -85 -100 -151
-46 -66 -112 -164 -146 -217 -95 -148 -318 -477 -328 -483 -14 -9 -324 60
-394 88 -16 6 -67 47 -113 91 -45 43 -85 76 -89 72 -13 -13 40 -97 92 -144 57
-52 103 -78 215 -118 41 -15 89 -37 105 -48 17 -12 41 -27 55 -34 14 -7 41
-27 61 -45 64 -57 76 -107 24 -107 -50 0 -39 -9 200 -167 22 -14 69 -45 105
-69 91 -60 96 -61 109 -23 6 17 9 35 6 39 -3 5 -59 39 -125 77 -151 86 -157
105 -29 84 30 -5 84 -12 121 -15 l67 -6 10 37 c5 21 12 50 15 65 10 42 53 86
117 117 33 16 65 33 72 39 6 5 31 12 55 15 56 7 60 12 35 45 -17 23 -29 28
-79 32 -32 3 -65 9 -73 14 -13 8 -98 22 -213 33 -32 3 -58 8 -58 10 0 23 255
304 294 325 17 9 26 4 60 -33 84 -91 156 -176 203 -239 30 -40 57 -66 71 -68
24 -4 122 71 122 93 0 7 -10 34 -21 61 -20 44 -21 60 -16 213 6 189 31 326 73
392 37 59 171 196 230 235 28 19 65 37 83 40 18 4 34 12 36 18 11 42 25 139
21 143 -6 6 -52 -23 -96 -62 -20 -16 -60 -50 -90 -75 -30 -25 -132 -121 -227
-215 -185 -183 -221 -217 -357 -340 -48 -44 -99 -90 -113 -103 -40 -36 -40
-17 0 27 19 22 38 37 41 33 3 -3 6 -1 6 5 0 6 11 21 23 34 13 13 52 55 86 93
34 38 78 81 99 96 20 15 80 80 132 144 52 65 112 139 133 163 21 25 46 58 54
72 9 14 23 32 32 39 9 7 10 12 3 12 -6 0 -154 -142 -328 -315 -174 -173 -320
-315 -325 -315 -17 0 -9 46 16 96 36 70 74 130 151 236 37 51 105 149 152 218
47 69 104 150 127 180 46 62 77 110 71 110 -2 0 -41 -41 -87 -91z"/>
<path d="M17153 11518 c-19 -24 -24 -38 -15 -38 5 0 14 11 20 25 13 27 10 32
-5 13z"/>
<path d="M17091 11424 c-30 -38 -26 -53 4 -18 23 27 31 44 21 44 -3 0 -14 -12
-25 -26z"/>
<path d="M17197 11073 c-4 -3 -7 -15 -7 -25 0 -26 24 -17 28 10 3 21 -8 29
-21 15z"/>
<path d="M14708 10393 c7 -3 16 -2 19 1 4 3 -2 6 -13 5 -11 0 -14 -3 -6 -6z"/>
<path d="M16502 9821 c-7 -4 -12 -22 -10 -39 1 -18 -5 -39 -15 -49 -35 -40
-57 -141 -57 -269 0 -106 2 -124 20 -147 17 -22 26 -24 60 -20 23 3 40 1 40
-4 0 -17 58 -13 64 4 3 8 4 18 1 23 -3 4 2 13 10 20 20 17 19 69 -5 165 -11
44 -20 91 -20 104 0 13 -3 21 -7 17 -8 -8 -51 108 -61 166 -5 27 -11 35 -20
29z"/>
<path d="M8847 9584 c-34 -32 -66 -61 -71 -65 -6 -5 -1 -9 11 -9 12 0 28 6 35
13 7 6 34 29 61 50 43 35 61 67 37 67 -6 0 -38 -25 -73 -56z"/>
<path d="M12232 9628 c5 -15 48 -24 48 -10 0 10 -23 22 -42 22 -5 0 -8 -6 -6
-12z"/>
<path d="M8627 9583 c-12 -11 -8 -23 8 -23 8 0 15 7 15 15 0 16 -12 20 -23 8z"/>
<path d="M8680 9479 c0 -5 5 -7 10 -4 6 3 10 8 10 11 0 2 -4 4 -10 4 -5 0 -10
-5 -10 -11z"/>
<path d="M12223 9377 c-17 -34 -33 -73 -37 -87 -3 -14 12 13 35 59 22 46 38
85 36 87 -2 2 -17 -24 -34 -59z"/>
<path d="M16651 9234 c0 -11 3 -14 6 -6 3 7 2 16 -1 19 -3 4 -6 -2 -5 -13z"/>
<path d="M12132 9181 c-7 -19 -10 -36 -7 -39 6 -7 26 49 22 62 -2 6 -9 -5 -15
-23z"/>
<path d="M14449 8982 c-14 -15 -32 -36 -40 -47 -12 -17 -10 -16 15 3 32 25 61
61 54 68 -3 2 -16 -9 -29 -24z"/>
<path d="M14340 8848 c-12 -22 -12 -22 6 -6 10 10 15 20 12 24 -4 3 -12 -5
-18 -18z"/>
<path d="M17903 8743 c-20 -7 -15 -38 10 -61 13 -12 66 -37 118 -55 102 -35
119 -44 119 -57 0 -23 -44 -21 -225 9 -81 14 -115 4 -131 -38 -30 -75 -169
-337 -185 -346 -4 -3 -13 -23 -19 -45 -13 -50 -152 -337 -200 -415 -20 -33
-58 -98 -83 -145 -34 -63 -66 -104 -124 -161 -101 -97 -110 -103 -299 -198
-168 -84 -204 -98 -204 -83 0 13 67 89 200 227 58 61 143 152 190 204 100 111
130 141 141 141 8 0 33 69 27 76 -4 4 -32 -22 -203 -185 -96 -92 -197 -169
-288 -219 -23 -13 -50 -31 -61 -40 -15 -14 -42 -17 -150 -18 -127 0 -135 -1
-261 -43 -118 -39 -266 -79 -400 -109 -27 -7 -133 -26 -235 -43 -152 -26 -197
-37 -252 -65 -92 -46 -125 -45 -219 10 -41 24 -81 51 -88 60 -23 28 -6 46 43
46 50 0 56 8 56 73 0 51 -4 57 -58 91 -23 15 -59 42 -80 60 -48 43 -74 56
-110 56 -16 0 -74 9 -127 20 -136 28 -156 27 -185 -12 -21 -29 -22 -32 -6 -44
10 -6 44 -17 78 -23 35 -6 88 -26 126 -48 37 -20 93 -50 125 -66 102 -50 90
-87 -23 -71 -39 5 -73 8 -75 6 -8 -8 62 -60 115 -87 30 -15 77 -43 104 -62 26
-19 110 -65 186 -102 156 -78 226 -94 289 -67 20 8 103 36 185 62 82 26 176
59 210 74 75 34 224 66 238 52 13 -13 -24 -52 -69 -76 -29 -14 -103 -105 -103
-125 0 -19 20 -22 52 -7 18 8 72 23 120 34 73 16 96 26 140 62 29 24 73 70 98
103 25 32 59 78 77 101 29 38 43 46 133 76 71 24 104 30 111 23 14 -14 -3 -40
-53 -78 -122 -93 -294 -267 -283 -286 10 -16 24 -10 68 29 59 53 102 82 124
82 38 0 277 110 338 156 17 12 68 44 115 71 190 110 254 159 284 212 15 28 37
63 50 78 36 44 131 184 151 222 57 112 157 242 284 370 138 139 228 221 243
221 15 0 8 -32 -14 -69 -11 -20 -51 -81 -88 -136 -84 -124 -104 -166 -126
-259 -20 -84 -15 -106 21 -106 42 0 163 37 195 60 40 29 70 69 70 94 0 41 -16
45 -91 23 -38 -11 -71 -18 -74 -15 -13 12 11 39 73 81 72 49 138 72 242 83 95
10 178 39 235 82 28 20 66 47 85 59 19 12 52 40 74 62 l39 39 -21 34 c-49 79
-130 130 -243 153 -90 19 -163 44 -274 95 -61 28 -105 46 -215 88 -14 5 -31 7
-37 5z"/>
<path d="M14012 8478 c-7 -7 -12 -16 -12 -21 0 -5 7 -1 16 8 9 9 14 18 12 20
-2 3 -10 -1 -16 -7z"/>
<path d="M13954 8416 c-10 -8 -16 -17 -13 -20 3 -3 14 3 24 14 21 23 17 26
-11 6z"/>
<path d="M6700 8202 c-152 -72 -230 -111 -230 -117 0 -2 8 -1 18 4 9 4 32 14
51 22 119 49 311 147 291 148 -3 1 -61 -25 -130 -57z"/>
<path d="M13917 8223 c-26 -25 7 -59 126 -127 70 -41 60 -13 -24 66 -68 65
-87 76 -102 61z"/>
<path d="M6008 8194 c-5 -4 -8 -16 -8 -28 0 -14 3 -17 11 -9 6 6 9 19 7 28 -1
9 -6 13 -10 9z"/>
<path d="M5830 8068 c-55 -57 -103 -113 -106 -125 -3 -13 -11 -20 -16 -17 -17
10 8 -29 31 -50 12 -11 21 -31 21 -48 0 -17 5 -28 14 -28 8 0 16 -6 19 -12 3
-10 9 -9 23 3 24 20 154 90 154 83 0 -7 156 75 185 98 28 22 25 38 -7 38 -11
0 -85 -32 -164 -71 -80 -39 -151 -68 -159 -65 -24 9 -18 39 16 86 18 24 42 67
55 95 12 29 30 55 39 59 27 10 53 7 58 -8 3 -7 14 -16 25 -18 18 -5 19 -3 10
24 -8 21 -15 27 -28 23 -13 -4 -17 -1 -16 12 1 13 -7 19 -27 21 -23 3 -42 -12
-127 -100z"/>
<path d="M13695 7998 c-52 -48 -54 -45 65 -102 43 -21 93 -49 100 -57 3 -3 12
-9 20 -12 43 -20 136 -76 173 -105 23 -18 71 -53 107 -77 186 -129 234 -152
277 -138 38 13 35 35 -7 46 -19 5 -68 34 -109 65 -87 67 -259 192 -351 257
-36 25 -100 70 -143 100 -43 30 -82 55 -87 55 -5 0 -25 -15 -45 -32z"/>
<path d="M13496 7853 c-16 -8 -62 -41 -102 -73 -40 -32 -84 -62 -96 -65 -13
-4 -104 -47 -203 -96 -99 -48 -234 -108 -300 -132 -66 -25 -163 -63 -215 -85
-186 -80 -266 -111 -350 -136 -103 -32 -128 -44 -143 -71 -12 -22 -22 -101
-35 -290 -7 -93 -17 -147 -45 -239 -29 -92 -37 -135 -37 -195 0 -42 -9 -131
-21 -199 -17 -101 -19 -128 -9 -152 22 -54 113 -47 153 10 41 58 230 234 357
330 25 19 77 64 115 100 39 36 99 86 135 110 36 24 81 56 100 70 19 15 76 55
125 90 50 35 158 118 240 185 152 123 208 165 219 165 3 0 -30 -46 -74 -102
-45 -57 -117 -150 -162 -208 -45 -58 -130 -157 -190 -221 -66 -72 -123 -145
-149 -190 -23 -41 -58 -92 -79 -114 -94 -101 -110 -146 -65 -190 29 -30 81
-33 116 -7 13 10 47 23 74 30 95 23 185 77 260 153 79 81 111 111 307 297 132
125 302 270 622 532 188 154 206 173 206 215 0 51 -32 78 -170 141 -163 75
-186 90 -278 182 -42 43 -96 88 -120 99 -23 11 -52 32 -63 47 -24 31 -76 35
-123 9z"/>
<path d="M5648 7825 c-22 -29 -23 -74 -3 -81 25 -10 63 5 70 27 4 12 3 24 -3
28 -5 3 -12 16 -16 29 -9 28 -26 28 -48 -3z"/>
<path d="M11941 6744 c0 -11 3 -14 6 -6 3 7 2 16 -1 19 -3 4 -6 -2 -5 -13z"/>
<path d="M9045 6052 c-6 -4 -17 -20 -25 -37 -8 -16 -27 -41 -42 -55 -26 -24
-108 -173 -108 -195 0 -18 -75 -186 -109 -245 -60 -103 -163 -337 -176 -400
-4 -19 -11 -39 -15 -45 -11 -14 -40 -119 -40 -144 0 -12 5 -21 10 -21 6 0 10
12 10 26 0 14 4 23 9 20 10 -7 52 68 56 99 10 78 19 116 31 126 8 6 14 19 14
28 0 10 11 32 25 51 14 19 25 39 25 46 0 6 7 17 15 24 8 7 15 26 15 42 0 26
14 56 101 218 13 25 27 47 32 48 4 2 7 10 7 18 0 13 16 36 48 69 6 8 12 25 12
39 0 14 5 26 10 26 6 0 10 9 10 21 0 11 4 18 9 15 5 -3 12 9 15 28 4 19 13 39
21 46 8 7 13 16 10 20 -3 5 2 15 10 24 9 8 22 31 30 50 23 54 18 79 -10 58z"/>
<path d="M11885 6011 c-3 -5 -1 -12 5 -16 12 -7 30 2 30 16 0 12 -27 12 -35 0z"/>
<path d="M8912 5500 c0 -14 2 -19 5 -12 2 6 2 18 0 25 -3 6 -5 1 -5 -13z"/>
<path d="M8840 5475 c0 -8 -4 -15 -10 -15 -5 0 -10 -4 -10 -10 0 -5 7 -10 15
-10 9 0 15 9 15 25 0 14 -2 25 -5 25 -3 0 -5 -7 -5 -15z"/>
<path d="M8932 5440 c0 -19 2 -27 5 -17 2 9 2 25 0 35 -3 9 -5 1 -5 -18z"/>
<path d="M8685 5240 c-3 -5 -1 -10 4 -10 6 0 11 5 11 10 0 6 -2 10 -4 10 -3 0
-8 -4 -11 -10z"/>
<path d="M8755 3990 c-3 -5 -1 -10 4 -10 6 0 11 5 11 10 0 6 -2 10 -4 10 -3 0
-8 -4 -11 -10z"/>
<path d="M8948 3983 c7 -3 16 -2 19 1 4 3 -2 6 -13 5 -11 0 -14 -3 -6 -6z"/>
<path d="M8093 23393 c-29 -3 -43 -9 -43 -19 0 -37 85 -163 174 -259 31 -33
56 -61 56 -62 0 -9 83 -123 90 -123 12 0 150 -137 150 -149 0 -6 4 -11 10 -11
5 0 16 -15 24 -32 8 -18 15 -27 15 -20 1 6 6 12 12 12 6 0 8 -7 5 -16 -5 -12
11 -33 51 -71 63 -60 274 -223 288 -223 5 0 54 -30 110 -67 172 -115 168 -113
216 -113 25 0 50 5 56 11 6 6 55 15 109 21 132 15 207 0 230 -43 8 -16 14 -46
13 -67 -3 -48 49 -130 123 -197 56 -50 88 -68 153 -82 32 -7 52 -4 99 14 42
16 63 20 70 13 8 -8 7 -13 -3 -19 -26 -16 -4 -57 41 -78 93 -45 139 -63 160
-63 11 0 44 -11 72 -24 35 -17 85 -28 153 -36 96 -10 104 -10 144 10 23 12 60
42 82 66 22 24 47 44 56 44 9 0 2 8 -16 18 -17 9 -59 42 -93 72 -71 63 -96 79
-127 80 -16 0 -27 11 -41 43 -28 62 -83 107 -135 109 -74 2 -91 -2 -115 -29
-19 -21 -23 -35 -20 -75 2 -40 0 -49 -15 -54 -22 -7 -19 -10 -41 49 -23 61
-15 95 24 109 35 12 38 28 9 53 -11 11 -36 49 -55 86 l-36 68 -84 30 c-133 48
-208 42 -243 -19 -28 -50 -26 -84 7 -149 37 -74 52 -77 53 -9 1 111 39 163
129 175 33 5 42 1 83 -38 56 -51 66 -86 41 -149 -18 -49 -70 -110 -92 -110 -7
0 -10 -4 -7 -10 3 -5 24 -10 46 -10 36 0 40 -2 37 -22 -2 -17 -14 -24 -62 -35
-103 -23 -183 16 -252 124 -31 49 -34 60 -34 129 0 64 4 81 25 112 34 49 32
65 -12 86 -68 33 -136 101 -182 183 -107 193 -99 183 -132 176 -16 -3 -50 0
-75 7 l-46 13 36 15 c20 8 36 18 36 22 0 17 -32 32 -82 39 -29 5 -87 15 -128
24 -41 8 -106 21 -145 27 -229 40 -557 156 -740 262 -171 100 -215 130 -215
149 0 10 3 19 8 19 23 0 332 -31 357 -36 86 -16 247 -57 295 -75 103 -37 165
-63 180 -75 8 -6 35 -22 60 -35 51 -27 69 -46 70 -72 0 -36 30 -65 73 -73 61
-10 114 -30 139 -54 23 -21 40 -25 52 -12 10 9 29 10 36 1 3 -3 15 -9 28 -13
18 -6 22 -4 22 13 0 11 -10 27 -22 36 -46 32 -135 85 -198 117 -36 18 -67 35
-70 38 -9 11 -235 118 -310 148 -162 64 -217 83 -270 92 -62 11 -402 20 -467
13z m548 -716 c-10 -9 -11 -8 -5 6 3 10 9 15 12 12 3 -3 0 -11 -7 -18z m139
-49 c19 -12 69 -42 110 -68 83 -53 127 -71 117 -49 -3 8 -8 22 -12 32 -10 25
12 22 52 -9 20 -15 33 -34 33 -48 0 -12 11 -33 25 -46 26 -25 34 -70 12 -70
-7 0 -29 11 -48 25 -19 14 -63 42 -99 62 -170 93 -300 186 -300 214 0 9 60
-14 110 -43z m652 -62 c17 -25 -4 -76 -32 -76 -10 0 -50 62 -50 78 0 23 67 22
82 -2z m16 -166 c-24 -33 -85 -57 -102 -40 -19 19 10 44 65 56 30 6 55 12 57
13 1 0 -7 -13 -20 -29z m995 -407 c37 -56 43 -76 31 -107 -8 -20 -27 -20 -68
-1 -31 15 -32 17 -30 78 0 34 2 68 2 75 4 26 29 9 65 -45z m-111 -23 c-1 -25
-5 -52 -9 -60 -3 -8 -8 -24 -10 -35 -6 -33 -19 -38 -54 -19 -41 21 -58 42 -59
72 0 26 22 29 40 6 8 -8 22 -20 33 -26 28 -15 41 10 21 41 -20 29 -4 75 24 69
14 -3 16 -13 14 -48z m307 -89 c14 -9 8 -44 -11 -68 -14 -18 -63 -16 -78 2
-10 13 -9 19 6 36 16 18 47 37 64 38 3 0 11 -3 19 -8z"/>
<path d="M11440 23040 c-13 -8 -12 -10 3 -10 9 0 17 5 17 10 0 12 -1 12 -20 0z"/>
<path d="M9450 22855 c7 -9 15 -13 17 -11 7 7 -7 26 -19 26 -6 0 -6 -6 2 -15z"/>
<path d="M11243 22776 c-69 -33 -327 -207 -383 -260 -25 -23 -61 -55 -80 -70
-111 -88 -230 -228 -230 -271 0 -13 18 -45 40 -71 72 -88 155 -149 296 -218
74 -36 168 -88 209 -116 104 -70 164 -65 165 13 1 18 7 61 15 97 8 36 24 151
35 255 11 105 25 206 30 225 6 19 10 54 10 78 0 24 7 75 16 114 10 42 15 97
12 136 -4 56 -8 68 -32 88 -34 30 -39 30 -103 0z"/>
<path d="M10959 22703 c-13 -16 -12 -17 4 -4 9 7 17 15 17 17 0 8 -8 3 -21
-13z"/>
<path d="M10855 21787 c16 -13 36 -22 43 -19 20 7 -5 29 -43 37 l-30 7 30 -25z"/>
<path d="M6180 20604 c0 -27 21 -56 104 -147 60 -65 84 -86 98 -81 12 4 21 -1
26 -15 9 -24 72 -71 133 -99 65 -29 105 -64 102 -87 -1 -11 0 -14 3 -7 8 18
37 15 60 -7 11 -10 36 -26 55 -35 19 -9 54 -44 78 -76 34 -45 57 -65 100 -85
31 -14 63 -30 71 -35 131 -83 213 -110 332 -110 51 0 111 -5 133 -10 58 -13
254 -15 267 -2 7 7 2 17 -17 34 -16 12 -42 38 -59 57 -17 18 -75 70 -129 114
-54 44 -95 82 -93 85 14 14 206 -107 251 -158 11 -12 47 -41 80 -63 109 -73
269 -199 335 -263 49 -47 77 -66 112 -75 46 -13 49 -12 90 17 24 17 78 47 120
68 78 37 126 82 162 153 35 70 10 68 -124 -7 -48 -28 -102 -53 -119 -56 -28
-6 -31 -4 -31 18 0 28 21 49 68 68 18 7 45 28 60 47 24 33 27 34 39 17 13 -18
15 -18 64 -1 27 10 58 15 68 12 14 -4 26 7 51 47 18 29 40 64 50 78 9 14 27
45 41 70 13 25 36 60 51 78 37 43 35 56 -9 88 -66 48 -104 87 -160 164 -75
101 -101 128 -147 152 -43 22 -69 21 -211 -12 -71 -16 -206 -36 -390 -55 -33
-4 -87 -13 -120 -22 -42 -10 -141 -16 -335 -20 -429 -9 -682 19 -1050 117 -63
16 -124 30 -135 30 -12 0 -30 7 -41 15 -25 19 -34 19 -34 -1z m2316 -119 c22
-53 18 -74 -13 -81 -16 -3 -44 -10 -63 -15 -19 -5 -46 -9 -60 -9 -24 0 -24 1
8 20 18 11 39 20 47 20 14 0 36 39 34 58 -8 51 26 56 47 7z m-66 -215 c0 -5
-2 -10 -4 -10 -3 0 -8 5 -11 10 -3 6 -1 10 4 10 6 0 11 -4 11 -10z m-1 -167
c17 -31 31 -61 31 -67 0 -6 -22 -23 -48 -38 -26 -16 -54 -33 -63 -39 -12 -9
-21 -6 -45 17 -16 16 -54 51 -83 78 -46 43 -51 51 -35 57 32 11 178 47 196 48
10 1 28 -20 47 -56z m-138 -174 c25 -25 52 -86 44 -99 -26 -42 -125 46 -125
111 0 18 60 9 81 -12z m291 -1 c-7 -7 -12 -8 -12 -2 0 14 12 26 19 19 2 -3 -1
-11 -7 -17z m-32 -13 c-14 -17 -30 -20 -30 -6 0 5 8 12 18 14 9 3 19 5 21 6 2
0 -2 -6 -9 -14z m-553 -91 c-3 -3 -12 -4 -19 -1 -8 3 -5 6 6 6 11 1 17 -2 13
-5z m-32 -14 c3 -5 12 -7 20 -3 8 3 15 0 15 -6 0 -6 11 -11 24 -11 14 0 31 -8
38 -18 7 -9 36 -28 63 -40 62 -29 85 -48 108 -92 19 -35 11 -59 -16 -44 -18
11 -103 83 -172 147 -29 26 -56 47 -62 47 -14 0 -50 29 -36 30 6 0 14 -4 18
-10z m335 -130 c0 -5 -2 -10 -4 -10 -3 0 -8 5 -11 10 -3 6 -1 10 4 10 6 0 11
-4 11 -10z"/>
<path d="M9085 20190 c3 -5 15 -10 26 -10 11 0 17 5 14 10 -3 6 -15 10 -26 10
-11 0 -17 -4 -14 -10z"/>
<path d="M9172 20183 c-7 -7 -12 -17 -12 -23 0 -10 -114 -130 -124 -130 -2 0
2 17 9 37 7 20 11 42 8 49 -6 15 -50 34 -94 39 -19 3 -43 6 -54 7 -15 2 -37
-22 -95 -109 -41 -62 -95 -146 -120 -188 -25 -41 -64 -105 -87 -141 -24 -36
-43 -68 -43 -70 0 -13 30 -1 41 17 12 17 31 23 101 31 110 14 132 6 178 -68
29 -46 108 -114 132 -114 4 0 40 -16 81 -35 41 -19 84 -35 96 -35 11 0 40 -5
64 -12 26 -6 55 -8 73 -3 26 7 23 9 -37 20 -37 6 -78 18 -90 27 -82 54 -179
166 -179 206 0 29 31 59 67 67 30 6 32 4 42 -30 22 -81 57 -122 136 -161 58
-28 82 -35 107 -31 18 3 59 11 91 16 35 6 77 22 105 41 25 16 54 30 65 30 19
0 19 -1 2 -27 -9 -16 -42 -51 -73 -80 -31 -28 -54 -54 -50 -58 11 -11 79 27
101 57 24 33 45 35 78 10 34 -26 53 -32 149 -48 47 -7 108 -17 135 -23 60 -12
318 -43 395 -47 30 -2 91 -6 136 -9 91 -6 97 -3 108 57 4 20 11 38 17 40 5 2
11 16 12 33 2 25 -5 34 -48 63 -62 42 -130 76 -220 114 -95 39 -414 158 -425
158 -5 0 1 -17 13 -38 28 -51 19 -72 -32 -72 -30 0 -42 -5 -55 -25 -9 -13 -16
-27 -16 -30 0 -3 22 -5 48 -5 56 0 73 -11 101 -65 22 -43 19 -80 -6 -89 -34
-13 -256 45 -290 76 -38 36 -38 65 1 109 20 21 42 54 50 72 12 29 20 35 54 39
22 3 51 13 63 22 l22 15 -27 11 c-18 7 -33 7 -46 0 -52 -28 -80 -6 -106 80
-27 90 -170 201 -289 225 -68 14 -250 12 -263 -2z m228 -294 c55 -25 61 -34
54 -84 -8 -54 -33 -101 -61 -114 -38 -17 -91 -13 -109 8 -9 10 -27 31 -40 45
-43 48 -46 61 -19 84 14 12 25 31 25 41 0 44 76 54 150 20z m183 -19 c6 -23 3
-63 -8 -127 -15 -83 -20 -95 -51 -123 -54 -47 -72 -40 -29 12 35 41 59 130 58
211 0 73 14 87 30 27z m671 -136 c19 -19 20 -35 3 -58 -11 -15 -17 -17 -35 -7
-36 19 -29 76 10 80 4 1 14 -6 22 -15z m-130 -39 c9 -14 23 -25 31 -25 21 0
35 -33 35 -80 0 -71 -31 -105 -50 -55 -9 24 -30 35 -30 15 0 -22 -40 -9 -46
15 -3 14 -10 25 -15 25 -8 0 -10 108 -2 123 10 18 61 6 77 -18z m211 -76 c19
-17 35 -39 35 -49 0 -24 -105 -79 -120 -64 -14 14 20 144 37 144 7 0 28 -14
48 -31z m176 -1 c16 -12 29 -30 29 -40 0 -15 -8 -18 -45 -18 -63 0 -95 17 -95
51 0 44 55 48 111 7z m14 -168 c-3 -5 -10 -10 -16 -10 -5 0 -9 5 -9 10 0 6 7
10 16 10 8 0 12 -4 9 -10z"/>
<path d="M7540 19714 c55 -24 508 -174 525 -174 8 0 15 4 15 8 0 20 -28 32
-71 32 -30 0 -81 13 -136 34 -99 38 -342 116 -358 116 -5 -1 6 -8 25 -16z"/>
<path d="M7611 18438 c-14 -23 -14 -23 8 -4 22 20 25 26 13 26 -4 0 -13 -10
-21 -22z"/>
<path d="M7540 18365 c-7 -8 -8 -15 -2 -15 5 0 15 7 22 15 7 8 8 15 2 15 -5 0
-15 -7 -22 -15z"/>
</g>
</svg>
